<?xml version="1.0" encoding="utf-8"?>
<!-- Generator: Adobe Illustrator 17.0.0, SVG Export Plug-In . SVG Version: 6.00 Build 0)  -->
<!DOCTYPE svg PUBLIC "-//W3C//DTD SVG 1.1//EN" "http://www.w3.org/Graphics/SVG/1.1/DTD/svg11.dtd">
<svg version="1.1" id="Layer_1" xmlns="http://www.w3.org/2000/svg" xmlns:xlink="http://www.w3.org/1999/xlink" x="0px" y="0px"
	 width="612px" height="650.833px" viewBox="0 0 612 650.833" enable-background="new 0 0 612 650.833" xml:space="preserve">
<path d="M155.515,295.791c-0.092-0.08-0.184-0.165-0.282-0.245c-3.849-3.323-5.043-5.869-5.637-9.535s-0.098-8.813,1.72-15.276
	c3.635-12.925,12.326-30.196,19.48-50.031c2.387-6.328-0.814-13.384-7.136-15.771c-1.261-0.477-2.589-0.741-3.935-0.777
	c-5.361-0.165-10.208,3.17-11.952,8.244c-6.487,17.987-15.3,34.927-20.025,51.714c-2.362,8.391-3.752,16.977-2.319,25.808
	c1.432,8.831,6.169,17.552,13.794,24.137c5.049,4.498,12.785,4.051,17.283-0.998C161.005,308.013,160.564,300.289,155.515,295.791z"
	/>
<path d="M45.41,559.618c0.122,0.037,0.245,0.067,0.367,0.098l104.774,28.091c6.499,1.848,13.274-1.916,15.123-8.421
	c1.848-6.506-1.922-13.274-8.421-15.122c-0.122-0.037-0.245-0.067-0.367-0.098l-40.557-10.875l47.338-176.715
	c20.196,3.152,41.23,0.82,59.578-8.556c22.014-11.249,39.376-33.311,44.333-64.664v-0.006l0,0l26.371-167.186
	c1.175-3.568,0.649-7.473-1.426-10.6c-2.013-3.164-5.367-5.233-9.1-5.612l-118.795-31.83c-1.763-0.802-3.69-1.175-5.624-1.083
	c-1.769,0.092-3.501,0.563-5.067,1.383c-3.366,1.671-5.777,4.792-6.542,8.47l-60.729,158l0,0
	c-11.383,29.627-7.381,57.412,6.059,78.159c11.2,17.289,28.244,29.823,47.308,37.197L92.694,546.962l-40.576-10.881
	c-6.499-1.848-13.274,1.916-15.123,8.421C35.141,550.995,38.911,557.764,45.41,559.618z M167.009,114.094l101.366,27.161
	l-5.153,32.644l-108.073-28.966L167.009,114.094z M113.263,319.739c-9.48-14.639-12.748-32.669-3.752-56.071l36.806-95.754
	l113.073,30.3L243.405,299.53v0.006c-3.917,24.762-15.765,38.746-31.292,46.683c-15.533,7.938-35.527,9.156-54.095,4.18
	S122.749,334.378,113.263,319.739z"/>
<path d="M463.278,212.284c-1.646-4.774-6.053-8.042-11.096-8.238c-6.756-0.263-12.442,5.006-12.705,11.757
	c-0.061,1.634,0.202,3.262,0.777,4.786c7.185,19.908,16.126,37.246,19.963,50.245c1.922,6.499,2.497,11.689,1.965,15.331
	s-1.652,6.096-5.453,9.388c-5.171,4.357-5.826,12.081-1.469,17.246c4.357,5.165,12.081,5.826,17.246,1.469
	c0.086-0.073,0.171-0.147,0.251-0.22c7.644-6.622,12.332-15.447,13.642-24.321c1.31-8.874-0.226-17.448-2.705-25.833
	C478.731,247.125,469.741,230.191,463.278,212.284z"/>
<path d="M560.28,535.958c-0.141,0.037-0.281,0.073-0.422,0.116l-40.582,10.875l-47.387-176.703
	c19.07-7.368,36.132-19.908,47.332-37.203c13.433-20.747,17.43-48.538,6.028-78.159v-0.006L464.526,96.903
	c-0.759-3.672-3.164-6.799-6.524-8.47c-1.689-0.887-3.556-1.371-5.465-1.408c-1.805-0.031-3.599,0.343-5.239,1.089l-118.801,31.836
	c-3.739,0.373-7.105,2.448-9.119,5.618c-2.069,3.121-2.595,7.026-1.426,10.581l26.371,167.198l0,0v0.006
	c4.957,31.353,22.326,53.415,44.346,64.664c18.342,9.37,39.376,11.701,59.572,8.556l47.393,176.709l-40.606,10.881
	c-6.561,1.634-10.557,8.274-8.923,14.835s8.274,10.557,14.835,8.923c0.141-0.037,0.282-0.073,0.422-0.116l104.836-28.091
	c6.561-1.634,10.557-8.274,8.923-14.835C573.481,538.321,566.841,534.33,560.28,535.958z M343.534,141.255L444.9,114.094
	l11.854,30.845l-108.073,28.966L343.534,141.255z M399.807,346.22c-15.539-7.938-27.387-21.922-31.304-46.683v-0.006
	l-15.985-101.317l113.073-30.3l36.806,95.754l0,0v0.006c9.009,23.403,5.747,41.432-3.727,56.065
	c-9.48,14.639-26.187,25.686-44.756,30.661C435.34,355.375,415.346,354.158,399.807,346.22z"/>
<path d="M305.155,102.209c6.757,0.122,12.338-5.263,12.454-12.02c0-0.147,0-0.288,0-0.435V63.133
	c0.098-6.756-5.306-12.313-12.063-12.411c-0.116,0-0.239,0-0.355,0c-6.757,0.104-12.148,5.655-12.056,12.411v26.622
	C293.013,96.512,298.399,102.087,305.155,102.209z"/>
<path d="M270.914,108.586c5.906-3.286,8.036-10.734,4.749-16.646c-0.067-0.122-0.141-0.245-0.214-0.367l-14.81-25.582
	c-2.252-4.015-6.567-6.432-11.163-6.249c-6.756,0.269-12.014,5.967-11.744,12.717c0.08,2.044,0.673,4.039,1.726,5.796l14.81,25.582
	C257.554,109.749,265.008,111.873,270.914,108.586z"/>
<path d="M352.781,106.591c0.073-0.122,0.147-0.245,0.214-0.367l14.81-25.582c3.47-5.802,1.579-13.317-4.223-16.787
	c-1.867-1.114-3.99-1.714-6.163-1.732c-4.474-0.043-8.611,2.356-10.796,6.261l-14.81,25.582c-3.488,5.79-1.622,13.311,4.168,16.799
	C341.771,114.247,349.293,112.387,352.781,106.591z"/>
<text transform="matrix(1 0 0 1 -0.0012 717.2988)" font-family="'Arial-BoldMT'" font-size="30.6">Created by andriwidodo</text>
<text transform="matrix(1 0 0 1 -0.0012 747.902)" font-family="'Arial-BoldMT'" font-size="30.6">from the Noun Project</text>
</svg>
