<svg xmlns="http://www.w3.org/2000/svg" viewBox="0 0 84.21 108.77"><defs><style>.cls-1,.cls-5{fill:#3cbfbf;}.cls-1,.cls-3,.cls-6,.cls-7,.cls-9{fill-rule:evenodd;}.cls-2{fill:#0d9b9b;}.cls-10,.cls-3{fill:none;stroke-linecap:round;stroke-miterlimit:10;}.cls-3{stroke:#9edddd;stroke-width:2.75px;}.cls-4{fill:#e5e5e5;}.cls-11,.cls-6{fill:#d1d1d1;}.cls-7{fill:#60255e;}.cls-8{fill:#8c5691;}.cls-9{fill:#27acb0;}.cls-10{stroke:#d1d1d1;stroke-width:1.09px;}</style></defs><title>Asset 6</title><g id="Layer_2" data-name="Layer 2"><g id="Layer_26" data-name="Layer 26"><polygon class="cls-1" points="1.47 0.27 0 70.93 59.63 71.36 56.16 0 1.47 0.27"/><circle class="cls-2" cx="10.31" cy="7.02" r="3"/><circle class="cls-2" cx="47.84" cy="7.02" r="3"/><path class="cls-3" d="M10.31,8.14s.27,30,17.75,30.53S47.82,19.88,47.84,8.14"/><ellipse class="cls-4" cx="44.2" cy="17.38" rx="26.5" ry="5.74"/><ellipse class="cls-5" cx="44.6" cy="86" rx="19.1" ry="5.51"/><path class="cls-6" d="M44.2,23.12c-14.64,0-26.5-2.57-26.5-5.74l7.8,68.83h0c.39,2.94,8.76,5.3,19.06,5.3s18.64-2.35,19.06-5.28h0l7-68.85C70.7,20.55,58.83,23.12,44.2,23.12Z"/><path class="cls-7" d="M21.78,34l5.36,49.8h0c.36,2.83,8,5.09,17.38,5.09s17-2.25,17.38-5.08h0L66.79,34Z"/><ellipse class="cls-8" cx="44.27" cy="34.03" rx="22.49" ry="2.93"/><path class="cls-1" d="M59.47,34.69,73.84,3.41,69.89,1,54.28,35C55.73,35,57.56,34.9,59.47,34.69Z"/><path class="cls-9" d="M73.84,3.41c-.17.37-1.2.14-2.29-.52S69.72,1.39,69.89,1s1.2-.14,2.29.52S74,3,73.84,3.41Z"/><path class="cls-9" d="M60.26,22l-6,13c1.45,0,3.28-.1,5.19-.31l6.46-14.07A41.23,41.23,0,0,1,60.26,22Z"/><path class="cls-9" d="M55.31,51.35a5.8,5.8,0,0,1-11.57.71c0-.1,0-.2,0-.3L36,52.24,39,101.67l7.72-.48a5.8,5.8,0,1,1,11.57-.71l8.05-.5L63.34,50.55l-8.07.5C55.29,51.15,55.3,51.25,55.31,51.35Z"/><rect class="cls-5" x="14.34" y="75.28" width="49.52" height="3.15" transform="translate(-35.2 120.62) rotate(-93.53)"/><rect class="cls-5" x="38.54" y="73.78" width="49.52" height="3.15" transform="translate(-8.02 143.18) rotate(-93.53)"/><line class="cls-10" x1="49.58" y1="74.42" x2="49.04" y2="78.03"/><line class="cls-10" x1="47.51" y1="75.95" x2="51.11" y2="76.5"/><circle class="cls-10" cx="52.24" cy="65.8" r="2.2" transform="translate(-31.75 63.91) rotate(-50.26)"/><circle class="cls-11" cx="53.32" cy="86.18" r="1.65" transform="translate(-16.98 13.18) rotate(-12.18)"/><path class="cls-9" d="M76.19,58.9a5.8,5.8,0,0,1-11.47-1.69c0-.1,0-.19.06-.29L57.1,55.8l-7.2,49,7.65,1.13A5.8,5.8,0,0,1,69,107.6l8,1.17,7.2-49-8-1.18C76.21,58.71,76.2,58.8,76.19,58.9Z"/><rect class="cls-5" x="30.3" y="78.95" width="49.52" height="3.15" transform="translate(-32.61 123.29) rotate(-81.64)"/><rect class="cls-5" x="54.29" y="82.47" width="49.52" height="3.15" transform="translate(-15.6 150.04) rotate(-81.64)"/><line class="cls-10" x1="65.82" y1="80.3" x2="64.55" y2="83.72"/><line class="cls-10" x1="66.89" y1="82.65" x2="63.48" y2="81.37"/><circle class="cls-10" cx="70.2" cy="72.41" r="2.2" transform="translate(-29.79 59.21) rotate(-38.37)"/><circle class="cls-11" cx="67.06" cy="92.57" r="1.65" transform="matrix(1, 0, 0, 1, -0.45, 0.33)"/></g></g></svg>