<svg xmlns="http://www.w3.org/2000/svg" viewBox="0 0 56.17 90.67"><defs><style>.cls-1{fill:#e5e5e5;}.cls-2,.cls-6{fill:#3cbfbf;}.cls-3{fill:#d1d1d1;}.cls-3,.cls-4,.cls-6,.cls-7{fill-rule:evenodd;}.cls-4{fill:#60255e;}.cls-5{fill:#8c5691;}.cls-7{fill:#27acb0;}</style></defs><title>Asset 2</title><g id="Layer_2" data-name="Layer 2"><g id="Layer_26" data-name="Layer 26"><ellipse class="cls-1" cx="26.5" cy="16.54" rx="26.5" ry="5.74"/><ellipse class="cls-2" cx="26.9" cy="85.16" rx="19.1" ry="5.51"/><path class="cls-3" d="M26.5,22.28C11.86,22.28,0,19.71,0,16.54L7.8,85.37h0c.39,2.94,8.76,5.3,19.06,5.3S45.54,88.32,46,85.39h0l7-68.85C53,19.71,41.14,22.28,26.5,22.28Z"/><path class="cls-4" d="M4.09,33.19,9.44,83h0c.36,2.83,8,5.09,17.38,5.09s17-2.25,17.38-5.08h0l4.81-49.81Z"/><ellipse class="cls-5" cx="26.57" cy="33.19" rx="22.49" ry="2.93"/><path class="cls-6" d="M41.77,33.85,56.14,2.57l-4-2.39-15.61,34C38,34.14,39.86,34.06,41.77,33.85Z"/><path class="cls-7" d="M56.14,2.57c-.17.37-1.2.14-2.29-.52S52,.55,52.19.18,53.39,0,54.48.7,56.32,2.2,56.14,2.57Z"/><path class="cls-7" d="M42.57,21.13l-6,13c1.45,0,3.28-.1,5.19-.31l6.46-14.07A41.23,41.23,0,0,1,42.57,21.13Z"/></g></g></svg>