<svg xmlns="http://www.w3.org/2000/svg" viewBox="0 0 69.48 165.98"><defs><style>.cls-1,.cls-5{fill:#3cbfbf;}.cls-1,.cls-3,.cls-6,.cls-7,.cls-9{fill-rule:evenodd;}.cls-2{fill:#0d9b9b;}.cls-10,.cls-3{fill:none;stroke-linecap:round;stroke-miterlimit:10;}.cls-3{stroke:#9edddd;stroke-width:2.75px;}.cls-4{fill:#e5e5e5;}.cls-11,.cls-6{fill:#d1d1d1;}.cls-7{fill:#60255e;}.cls-8{fill:#8c5691;}.cls-9{fill:#27acb0;}.cls-10{stroke:#d1d1d1;stroke-width:1.09px;}</style></defs><title>Asset 7</title><g id="Layer_2" data-name="Layer 2"><g id="Layer_26" data-name="Layer 26"><polygon class="cls-1" points="1.47 0.27 0 70.93 59.63 71.36 56.16 0 1.47 0.27"/><circle class="cls-2" cx="10.31" cy="7.02" r="3"/><circle class="cls-2" cx="47.84" cy="7.02" r="3"/><path class="cls-3" d="M10.31,8.14s.27,30,17.75,30.53S47.82,19.88,47.84,8.14"/><ellipse class="cls-4" cx="39.81" cy="45.04" rx="26.5" ry="5.74"/><ellipse class="cls-5" cx="40.21" cy="113.66" rx="19.1" ry="5.51"/><path class="cls-6" d="M39.81,50.78c-14.64,0-26.5-2.57-26.5-5.74l7.8,68.83h0c.39,2.94,8.76,5.3,19.06,5.3s18.64-2.35,19.06-5.28h0l7-68.85C66.31,48.21,54.45,50.78,39.81,50.78Z"/><path class="cls-7" d="M17.4,61.69l5.36,49.8h0c.36,2.83,8,5.09,17.38,5.09s17-2.25,17.38-5.08h0L62.4,61.69Z"/><ellipse class="cls-8" cx="39.89" cy="61.69" rx="22.49" ry="2.93"/><path class="cls-1" d="M55.09,62.35,69.46,31.07l-4-2.39-15.61,34C51.34,62.64,53.18,62.56,55.09,62.35Z"/><path class="cls-9" d="M69.46,31.07c-.17.37-1.2.14-2.29-.52s-1.84-1.5-1.67-1.87,1.2-.14,2.29.52S69.63,30.7,69.46,31.07Z"/><path class="cls-9" d="M55.88,49.63l-6,13c1.45,0,3.28-.1,5.19-.31l6.46-14.07A41.23,41.23,0,0,1,55.88,49.63Z"/><path class="cls-9" d="M23.28,94a5.8,5.8,0,0,1-11.57.71c0-.1,0-.2,0-.3L4,94.9,7,144.33l7.72-.48a5.8,5.8,0,0,1,11.57-.71l8.05-.5L31.31,93.21l-8.07.5C23.26,93.81,23.27,93.91,23.28,94Z"/><rect class="cls-5" x="-17.69" y="117.94" width="49.52" height="3.15" transform="translate(-111.79 133.94) rotate(-93.53)"/><rect class="cls-5" x="6.51" y="116.45" width="49.52" height="3.15" transform="translate(-84.61 156.51) rotate(-93.53)"/><line class="cls-10" x1="17.55" y1="117.09" x2="17.01" y2="120.69"/><line class="cls-10" x1="15.48" y1="118.62" x2="19.08" y2="119.16"/><circle class="cls-10" cx="20.21" cy="108.46" r="2.2" transform="translate(-76.12 54.66) rotate(-50.26)"/><circle class="cls-11" cx="21.29" cy="128.84" r="1.65" transform="translate(-26.7 7.39) rotate(-12.18)"/><path class="cls-9" d="M57.07,117.47A5.8,5.8,0,0,1,46.37,113c0-.09.09-.18.13-.27l-7.15-3L20.21,155.39l7.14,3A5.8,5.8,0,0,1,38,162.86L45.48,166l19.14-45.67-7.45-3.12C57.13,117.28,57.11,117.37,57.07,117.47Z"/><rect class="cls-5" x="6.47" y="131.58" width="49.52" height="3.15" transform="translate(-103.65 110.49) rotate(-67.26)"/><rect class="cls-5" x="28.84" y="140.96" width="49.52" height="3.15" transform="translate(-98.58 136.86) rotate(-67.26)"/><line class="cls-10" x1="41.71" y1="135.62" x2="39.63" y2="138.61"/><line class="cls-10" x1="42.17" y1="138.16" x2="39.18" y2="136.08"/><circle class="cls-10" cx="47.91" cy="129.06" r="2.2" transform="translate(-48.33 30.62) rotate(-23.99)"/><circle class="cls-11" cx="39.86" cy="147.81" r="1.65" transform="translate(-113.21 150.46) rotate(-75.9)"/></g></g></svg>