<?xml version="1.0" encoding="utf-8"?>
<!-- Generator: Adobe Illustrator 17.0.0, SVG Export Plug-In . SVG Version: 6.00 Build 0)  -->
<!DOCTYPE svg PUBLIC "-//W3C//DTD SVG 1.1//EN" "http://www.w3.org/Graphics/SVG/1.1/DTD/svg11.dtd">
<svg version="1.1" id="Layer_1" xmlns="http://www.w3.org/2000/svg" xmlns:xlink="http://www.w3.org/1999/xlink" x="0px" y="0px"
	 width="612px" height="650.5px" viewBox="0 0 612 650.5" enable-background="new 0 0 612 650.5" xml:space="preserve">
<g>
	<g>
		<g>
			<path fill="#010101" d="M306.612,69.192l0.612-1.224c1.836-2.448,5.508-3.06,7.956-1.224l1.836,1.836
				c0.612,0.612,1.224,0.612,1.224,1.224c7.344-4.896,15.912-7.344,25.704-7.344c25.704,0,45.9,20.808,45.9,45.9
				c0,20.808-13.464,38.556-32.436,44.064c-4.284,1.224-8.568,1.836-13.464,1.836c-10.404,0-19.584-3.06-26.928-8.568
				c-11.628-8.568-18.972-22.032-18.972-37.332c0-7.344,1.836-14.688,4.896-20.808l0,0l-1.836-1.224
				c-2.448-1.836-3.06-5.508-1.224-7.956l1.224-1.224c-14.688-3.06-10.404,9.792-9.792,48.96c0.612,23.256-33.048,37.332-61.2,15.3
				c9.18,1.224,28.152,3.06,26.928-15.3c-0.612-10.404-13.464-48.348,9.792-64.26C287.028,45.936,301.104,65.52,306.612,69.192z"/>
			<path fill="#010101" d="M552.636,473.724v15.912c0,3.06-2.448,5.508-5.508,5.508H398.412c-3.06,0-5.508-2.448-5.508-5.508
				v-15.912c0-3.06,2.448-5.508,5.508-5.508h148.716C550.188,468.216,552.636,470.664,552.636,473.724z"/>
			<path fill="#010101" d="M493.272,251.568v12.852c0,4.284-3.672,7.956-7.956,7.956h-72.828c-2.448,0-4.896-1.224-6.12-3.06
				l-34.884-38.556l-30.6,78.948l94.248,34.884c3.06,1.224,5.508,4.284,4.896,7.344c0,0,0,0,0,0.612l-3.672,83.232
				c0,4.284-3.672,7.956-7.956,7.956h-17.748c-4.284,0-7.956-3.672-7.956-7.956l-4.284-45.9l-63.648-22.644l-34.272-12.24
				l-6.732-2.448l-36.72-13.464c-1.224-0.612-4.896-2.448-4.284-7.956l17.136-113.832l-47.736,14.076h-0.612l-22.032,63.036
				c-1.224,4.284-5.508,6.12-9.792,4.896l-18.36-7.956c-4.284-1.224-6.12-5.508-4.896-9.792l28.152-75.888
				c0.612-2.448,2.448-4.284,4.896-4.896l0,0c0.612-0.612,1.224-0.612,1.836-1.224l80.172-28.764
				c11.628-4.284,23.256-6.732,32.436,1.224c3.06,3.06,14.076,14.688,23.868,24.48c2.448,2.448,6.732,1.224,7.344-1.836
				c2.448-4.896,4.896-18.972,7.344-21.42c3.672-3.672,13.464-4.284,24.48,4.896l46.512,60.588c0.612,0.612,1.224,1.224,2.448,1.836
				l55.08,2.448C490.212,243.612,493.272,247.284,493.272,251.568z"/>
			<path fill="#010101" d="M469.404,521.46v15.912c0,3.06-2.448,5.508-5.508,5.508H315.18c-3.06,0-5.508-2.448-5.508-5.508V521.46
				c0-3.06,2.448-5.508,5.508-5.508h148.716C466.956,515.952,469.404,518.4,469.404,521.46z"/>
			<path fill="#010101" d="M376.38,569.808v15.912c0,3.06-2.448,5.508-5.508,5.508H222.156c-3.06,0-5.508-2.448-5.508-5.508v-15.912
				c0-3.06,2.448-5.508,5.508-5.508h148.716C373.932,564.3,376.38,566.748,376.38,569.808z"/>
			<path fill="#010101" d="M335.376,366.624C335.376,366.624,335.376,367.236,335.376,366.624l-34.884-12.24h0.612L335.376,366.624z
				"/>
			<path fill="#010101" d="M313.344,449.856c3.06,2.448,3.672,6.732,1.836,9.792c0,0,0,0,0,0.612l-0.612,0.612l-56.304,63.036
				c-2.448,3.06-7.344,3.672-11.016,1.224l-18.36-12.852c-3.06-2.448-3.672-7.344-1.224-11.016l33.66-42.84l0.612-1.224"/>
			<path fill="#010101" d="M262.548,457.2l-0.612,1.224c0,0,0,0,0-1.224l15.912-89.964l54.468,19.584l-15.3,69.768
				c0,0.612-0.612,1.836-1.224,2.448"/>
			<path fill="#010101" d="M239.292,359.28c4.284,1.224,0,18.36-1.224,22.032l-23.256,68.544c-1.224,4.284-6.12,6.12-9.792,4.896
				l-149.94-55.08c-4.284-1.224-6.12-6.12-4.896-9.792l29.376-80.784c1.224-4.284,6.12-6.12,9.792-4.896L239.292,359.28z"/>
			<path fill="#010101" d="M201.96,314.604c1.224,0.612,2.448,1.836,1.836,3.672L198.9,331.74c-0.612,1.224-1.836,2.448-3.672,1.836
				l-56.916-20.808c-1.224-0.612-2.448-1.836-1.836-3.672l4.896-13.464c0.612-1.224,2.448-2.448,3.672-1.836L201.96,314.604z"/>
		</g>
	</g>
</g>
<text transform="matrix(1 0 0 1 -0.0012 717.2988)" font-family="'Arial-BoldMT'" font-size="30.6">Created by MRFA</text>
<text transform="matrix(1 0 0 1 -0.0012 747.902)" font-family="'Arial-BoldMT'" font-size="30.6">from the Noun Project</text>
</svg>
