<svg xmlns="http://www.w3.org/2000/svg" xmlns:xlink="http://www.w3.org/1999/xlink" version="1.1" x="0px" y="0px" viewBox="0, 0, 100, 93.744"><g><path d="M67.274,11.552 C63.36,11.552 60.346,14.68 60.346,18.479 C60.346,22.391 63.36,25.519 67.274,25.519 C71.071,25.519 74.201,22.391 74.201,18.479 C74.201,14.68 71.071,11.552 67.274,11.552 z" fill="#000000"></path><path d="M21.227,0 C17.206,0 13.854,3.352 13.854,7.374 C13.854,11.509 17.206,14.748 21.227,14.748 C25.251,14.748 28.602,11.509 28.602,7.374 C28.602,3.352 25.251,0 21.227,0 z" fill="#000000"></path><path d="M43.129,48.939 C44.358,47.15 45.026,44.916 45.14,42.346 C44.804,39.329 43.688,35.977 42.682,32.848 C41.676,30.837 42.569,32.848 43.35,33.072 C46.704,34.189 48.604,33.072 49.609,30.502 C46.479,23.574 43.797,16.759 40.558,9.943 C37.986,10.054 35.975,10.949 34.637,12.512 L38.994,24.468 C36.422,18.547 33.07,14.412 27.485,14.522 C25.474,14.522 23.351,15.528 21.226,17.652 C21.115,17.764 21.003,17.876 20.893,17.986 C19.103,23.126 17.317,28.378 15.529,33.518 L0,44.134 L2.121,48.38 L4.469,47.599 L18.213,71.063 L14.412,90.84 L21.227,92.627 L22.68,92.963 L25.028,83.24 L30.391,91.844 L34.413,91.51 L26.142,76.76 L27.818,68.492 L34.412,60.56 L50.168,93.52 L52.961,91.174 L55.419,89.052 L43.129,48.939 z M21.227,60.336 L19.218,64.583 L8.042,46.034 L21.116,39.441 C21.116,39.329 21.227,39.218 21.227,39.218 C22.009,37.989 22.791,36.871 23.462,35.754 C25.92,38.771 27.596,41.899 28.49,44.916 L21.227,60.336 z" fill="#000000"></path><path d="M87.256,55.166 C88.393,53.638 89.011,51.729 89.116,49.533 C88.805,46.956 87.773,44.092 86.843,41.418 C85.913,39.7 86.738,41.418 87.461,41.61 C90.562,42.564 92.319,41.61 93.249,39.414 C90.354,33.495 87.874,27.672 84.879,21.849 C82.5,21.944 80.641,22.708 79.403,24.044 L83.432,34.259 C81.054,29.2 77.954,25.667 72.789,25.761 C70.93,25.761 68.966,26.621 67.001,28.435 C66.899,28.531 66.795,28.627 66.693,28.721 C65.038,33.112 63.386,37.599 61.733,41.991 L47.372,51.061 L49.334,54.689 L51.505,54.021 L64.215,74.069 L60.7,90.966 L67.002,92.493 L68.346,92.78 L70.517,84.472 L75.477,91.824 L79.196,91.538 L71.547,78.936 L73.097,71.872 L79.195,65.095 L93.766,93.255 L96.349,91.251 L98.622,89.438 L87.256,55.166 z M67.002,64.904 L65.144,68.532 L54.809,52.684 L66.9,47.051 C66.9,46.956 67.002,46.861 67.002,46.861 C67.725,45.811 68.449,44.856 69.069,43.901 C71.342,46.479 72.892,49.151 73.719,51.729 L67.002,64.904 z" fill="#000000"></path><g><path d="M35.19,1.886 C33.346,0.214 29.878,1.035 27.444,3.721 C28.661,2.378 32.638,4 36.326,7.344 C38.171,9.016 41.639,8.194 44.073,5.509 C42.856,6.851 38.879,5.229 35.19,1.886" fill="#000000"></path><path d="M35.19,1.886 C33.346,0.214 29.878,1.035 27.444,3.721 C28.661,2.378 32.638,4 36.326,7.344 C38.171,9.016 41.639,8.194 44.073,5.509 C42.856,6.851 38.879,5.229 35.19,1.886" fill-opacity="1.0" stroke="#000000" stroke-width="1"></path></g><g><path d="M80.478,12.55 C78.633,10.878 75.165,11.7 72.731,14.385 C73.948,13.043 77.925,14.665 81.614,18.008 C83.458,19.68 86.926,18.859 89.36,16.174 C88.143,17.516 84.166,15.894 80.478,12.55" fill="#000000"></path><path d="M80.478,12.55 C78.633,10.878 75.165,11.7 72.731,14.385 C73.948,13.043 77.925,14.665 81.614,18.008 C83.458,19.68 86.926,18.859 89.36,16.174 C88.143,17.516 84.166,15.894 80.478,12.55" fill-opacity="1.0" stroke="#000000" stroke-width="1"></path></g></g></svg>