<svg xmlns="http://www.w3.org/2000/svg" viewBox="0 0 181.1 255"><defs><style>.cls-1{fill:#fff;}</style></defs><title>SF map</title><g id="Layer_2" data-name="Layer 2"><g id="Layer_26" data-name="Layer 26"><polygon class="cls-1" points="151.89 254.32 151.74 253.95 151.65 253.51 151.33 252.21 151 251.36 150.79 250.53 150.72 250.09 150.66 249.85 150.56 249.57 150.31 249.03 149.21 248.7 148.31 248.75 147.71 248.93 146.99 249.11 146.16 249.32 145.15 249.55 144.48 249.65 143.52 249.94 142.11 250.33 141.79 250.04 142.06 249.67 143.34 248.26 143.34 247.43 143.17 246.74 143.13 246.25 143.1 245.97 142.95 245.77 142.83 245.57 142.7 245.38 142.47 244.64 142.24 244.14 142.16 243.23 142.16 242.57 142.05 242.43 141.64 242.79 140.14 245.32 139.38 246.17 139.69 247.8 140.46 249.49 141.28 249.81 141.26 250.37 137.46 250.41 135.86 250.65 135.84 250.56 135.81 250.29 137.52 250 137.46 249.63 135.77 249.92 135.73 249.56 137.44 249.28 137.37 248.87 135.68 249.13 135.64 248.79 137.34 248.52 137.27 248.15 135.6 248.41 135.56 248.09 137.22 247.82 137.14 247.37 135.49 247.68 135.43 247.24 137.11 247 137.05 246.69 135.38 246.97 135.33 246.63 136.91 246.4 138 245.69 139.34 243.93 139.18 243.37 137.25 244.49 135.78 245.18 134.72 245.48 133.52 245.51 132.4 246.14 132.88 245.42 132.78 245.35 131.46 244.42 130.48 244.16 130.01 244.15 129.49 244.59 128.86 245.1 128.51 245.24 128.6 244.72 129.02 244.36 129.75 243.83 130.33 243.65 130.94 243.6 131.45 243.95 130.19 240.15 130.34 240.02 130.53 240.04 131.62 243.5 132.46 244.5 133.07 245.03 134.59 245 135.93 244.49 138.97 242.55 139.28 240.78 140.16 239.56 140.94 238.07 141.87 237.54 142.65 237.4 143.2 237.39 143.77 237.36 144.42 237.34 145.03 237.31 145.79 237.53 146.39 237.68 146.9 237.88 147.37 237.9 147.76 237.78 148.52 237.35 149.81 237.3 150.68 237.26 152.05 237.35 152.99 237.36 154.25 237.3 154.51 237.03 154.42 235.38 154.2 235.08 154.4 234.71 154.78 234.58 155.27 233.08 155.49 232.76 155.83 232.56 156.23 232.11 156.61 231.87 157.09 231.63 157.43 231.3 156.91 230.3 156.86 228.73 157.24 227.48 157.71 227.37 158.56 227.34 159.7 227.3 159.77 227.24 159.78 227.06 159.59 227 159.26 227.04 159.07 227.01 159 226.93 158.88 226.72 158.88 226.11 158.71 225.44 158.6 225.04 158.36 224.51 158.08 223.99 157.19 222.98 156.48 222.38 156.18 222.13 155.77 221.84 155.6 221.56 155.38 221.44 154.79 221.13 154.66 220.67 154.56 220.28 154.69 218.84 154.71 218.79 155.38 218.63 155.89 218.43 156.48 218.44 157.06 218.43 158.22 218.4 159.53 218.3 160.27 218.53 160.76 218.09 161 217.74 161.05 217.11 161.07 216.74 161.03 216.18 160.97 216.13 160.85 216.11 160.69 216.09 160.55 216.07 160.46 216.07 160.19 216.06 159.85 216.11 159.39 216.08 158.73 216.07 158.13 216.1 157.8 216.1 157.57 216.09 157.26 216.09 156.98 215.96 156.7 215.62 156.64 215.22 156.57 214.84 156.59 214.72 156.69 214.49 156.37 214.44 156.02 214.38 155.86 214.54 155.93 215.12 155.85 215.68 155.59 215.89 155.44 215.96 155.17 215.96 154.86 215.96 154.64 215.97 154.57 215.98 154.32 215.96 153.95 215.96 153.49 215.96 152.72 215.92 152.43 215.9 152.2 215.89 151.74 215.68 150.76 214.43 150.91 213.57 153.32 213.4 153.4 213.25 153.47 213.1 153.49 208.4 153.29 208.12 151.01 207.94 149.91 207.81 149.16 208.04 147.79 208.93 147.81 208.98 147.98 209.23 148.05 209.35 148.31 209.58 148.54 209.78 148.74 210.01 148.6 210.18 148.22 210.69 148.12 210.97 148.14 212.16 148.13 212.2 148.02 212.67 147.98 212.81 146.99 212.9 146.65 213.36 145.72 213.43 145.76 212.78 145.69 212.34 145.17 211.95 144.97 211.57 142.98 211.17 142.89 211.27 142.33 211.36 141.92 211.4 141.79 211.44 141.65 211.57 141.54 211.69 141.47 211.66 141.44 211.55 141.39 211.45 141.23 211.39 141.07 211.42 140.96 211.46 140.88 211.51 140.82 211.49 140.74 211.5 140.73 211.59 137.83 213.5 137.75 213.52 137.65 213.52 137.55 213.47 137.2 212.94 137.25 212.83 137.12 212.61 140.15 210.54 139.91 209.5 139.85 209.07 139.91 208.28 140.38 207.68 140.66 207.86 141.15 207.86 141.48 207.73 143.94 207.97 144.47 207.92 145.53 207.28 145.67 206.75 145.74 204.71 145.82 204.03 146.2 203.02 146.41 202.91 147.32 202.88 149.4 202.95 151.85 202.95 153.24 202.94 153.41 202.92 153.45 202.75 153.48 201.93 153.49 201.82 153.47 201.23 153.49 200.83 153.44 200.5 153.44 198.77 153.44 197.83 153.48 196.77 153.5 195.8 153.51 195.01 153.38 194.83 153.24 194.81 151.89 194.86 150.7 194.82 150.21 194.96 149.78 194.91 148.3 194.87 147.01 194.81 146.63 194.46 146.56 193.9 145.92 193.46 145.67 193.28 145.53 192.48 145.28 190.97 144.97 188.71 144.86 187.84 144.6 187.23 144.47 185.7 144.06 183.83 143.88 183.01 143.77 182.07 143.7 181.57 143.8 181.19 143.52 180.73 143.59 180.38 143.53 180.18 143.22 179.34 143.23 178.73 142.74 176.61 142.68 175.8 142.54 175.53 142.24 174.14 142.04 172.9 141.85 172.28 141.71 170.8 141.51 170.1 141.36 168.23 141.18 167.85 140.78 165.35 140.84 164.8 140.8 164.73 140.7 164.54 140.66 162.59 140.32 162.05 140.25 161.31 140.1 160.9 140.04 160.46 139.75 160.06 139.67 157.72 139.78 157.12 140.02 156.64 140.51 155.01 140.53 154.73 140.39 154.24 140.29 154.02 140.02 152.98 138.52 151.86 138.44 151.24 138.84 150.47 139.42 149.92 141.34 147.99 141.54 147.93 142.55 148.6 142.59 148.63 142.76 148.57 143.07 148.21 143.48 147.98 143.88 148.3 144.82 149.07 145.02 149.12 145.22 149.29 145.46 149.21 145.88 148.74 146.6 148.07 147.71 147.41 147.99 147.45 148.26 147.69 149.18 148.28 149.55 148.46 150.4 148.6 151.12 148.65 152.06 148.64 152.41 149 152.75 149.07 153.19 149.03 153.71 149.13 154 149.12 154.37 149.23 155.43 149.73 156.03 149.64 156.38 149.71 156.62 149.68 159.18 149.75 160.78 149.56 160.86 149.53 161.06 149.33 161.07 149.17 161 149.02 160.82 148.82 160.64 148.68 160.46 148.6 160.28 148.5 160.1 148.35 159.6 147.95 159.38 147.86 159.06 147.87 158.85 147.94 158.57 148.54 158.39 148.83 158.29 148.99 158.08 149.1 157.2 149.5 157.03 149.46 156.7 149.23 156.56 149.08 156.49 148.92 156.4 148.46 156.12 148.15 155.98 147.79 155.91 147.47 155.29 146.9 154.56 146.54 154.53 145.92 154.56 145.24 154.77 144.99 155.17 144.41 156 143 156.7 142.05 157.65 141.04 158.14 140.24 158.49 139.83 158.71 139.51 159.26 138.62 158.03 137.58 157.29 137.09 156.62 136.88 156.46 136.55 156.2 136.36 155.99 136.29 155.55 136 155.38 135.83 155.06 135.38 154.72 135.09 154.44 134.91 154.09 134.68 153.46 134.68 153.04 134.44 152.71 133.9 152.21 133.51 151.47 133.13 151.01 132.78 150.78 132.23 150.96 131.58 151.23 131.35 151.62 130.39 151.23 130.02 149.57 128.84 148.98 128.21 148.57 128.17 146.79 126.9 147.38 126.47 152.39 129.82 153.67 130.41 153.98 130.37 154.63 129.63 154.89 128.82 155.4 128.56 155.58 127.75 156.72 127.21 157.44 127.09 158.22 127.24 158.41 127.92 159.09 128.8 159.41 130.9 159.83 132.21 161.22 133.36 161.25 134.17 161.71 134.63 163.32 134.41 164.14 134.42 165.88 134.87 166.05 135.29 166.44 135.93 166.83 136.12 168.45 136.16 169.76 137.15 170.57 137.81 170.92 138.35 171.41 138.66 171.91 138.32 172.06 138 172.23 137.98 172.61 138.21 172.7 138.28 173.09 137.74 174.65 135.71 174.8 135.49 174.35 134.97 173.46 134.31 174.54 132.84 177.76 135.19 178.65 133.9 173.18 129.86 174.14 128.55 177.34 130.95 177.61 130.56 174.45 128.16 174.88 127.52 171.63 125.14 171.51 124.88 171.59 124.67 171.77 124.55 171.99 124.59 175.25 127 175.91 127.49 180.15 126.22 179.97 125.72 176.15 126.84 175.73 125.39 180.12 124.05 181.1 120.33 180.63 120.16 177.71 121.06 177.17 121.05 177.13 120.92 177.61 120.63 180.03 119.91 180.47 119.46 180.2 119.2 175.54 120.64 175.06 120.59 175.02 120.39 175.4 120.13 178.82 119.05 178.92 118.68 178.63 118.44 177.69 117.89 176.93 118.03 176.56 118.27 175.5 118.27 175.21 118.07 175.3 117.91 174.71 117.45 175.6 116.21 175.27 115.98 174.38 117.19 173.77 116.8 174.66 115.53 174.36 115.32 173.4 116.51 172.8 116.16 171.69 115.33 171.14 116 170.12 115.23 171.69 113 171.56 112.87 170.01 115.14 169.77 115.06 169.16 115.57 168.26 115.28 167.7 115.79 166.62 115.44 166.68 114.95 166.55 114.86 166.44 114.79 165.78 114.36 164.64 113.43 164.38 113.01 163.78 112.37 163.48 112.39 163.25 112.63 162.9 113.12 161.55 114.5 161.12 114.65 160.73 114.55 160.14 114.1 159.85 114.32 159.71 114.12 160.12 113.25 160.12 113.08 160.18 112.9 160.31 112.74 160.38 112.56 160.41 112.5 160.37 112.25 160.39 112.19 160.33 111.97 160.25 111.87 160.05 111.72 160.14 111.58 160.24 111.59 160.31 111.58 160.46 111.38 160.47 111.24 160.4 111.13 160.31 111.09 160.21 111 160.3 110.91 160.31 110.76 160.16 110.64 160.07 110.61 159.98 110.62 159.89 110.66 159.29 111.13 159.19 110.99 159.16 110.86 159.38 110.39 159.28 110.04 159.32 109.85 160.31 108.63 160.5 107.97 160.43 107.35 160.23 107.06 159.01 106.52 158.93 106.61 158.62 106.7 158.48 106.56 158.16 106.49 157.71 107.03 157.47 106.86 157.6 106.56 157.69 105.99 158.74 104.22 159.97 104.99 159.95 105.18 159.44 105.89 158.86 105.72 158.74 105.7 158.35 106.13 158.68 106.36 159 106.08 159.18 106.09 159.78 106.26 161.1 107.06 162.2 108.05 163.66 108.11 164.16 108.04 164.77 108.14 165.26 107.73 166.53 107.21 167.15 107.15 167.79 106.83 168.47 106.75 169.05 106.56 169.05 106.33 168.11 106.47 166.51 106.45 165.29 106.65 164.59 106.65 162.63 106.38 162.07 105.79 161.6 104.4 163.38 104.26 164.71 104.13 164.71 104.37 168.14 104.11 168.14 103.91 168.61 103.87 168.84 103.69 167.24 101.52 166.71 100.89 162.96 95.88 162.72 96.05 162.41 96.09 161.58 96.7 161.31 96.61 160.5 95.32 160.58 95.05 160.59 94.6 160.54 94.39 160.43 94.24 160.14 93.94 159.66 93.69 158.87 93.52 158.74 93.53 158.6 93.5 158.45 93.56 157.62 93.53 157.11 93.52 156.74 93.57 155.1 93.72 155.03 93.41 153.32 93.55 152.29 93.61 151.61 93.47 146.61 93.83 146.55 93.57 146.09 93.61 146.09 93.71 145.62 93.86 145.38 93.89 145.27 93.79 144.68 93.99 142.55 94.1 141.44 93.7 139.84 93.13 139.83 92.92 139.6 92.19 139.91 91.5 140.03 91.5 140.37 91.52 140.56 91.52 142.75 92.68 145.02 92.46 145.03 92.53 145.91 92.47 146.01 92.81 146.59 92.78 146.81 92.47 147.33 92.3 147.71 92.02 148.07 91.96 148.55 91.83 149 91.86 149.21 91.79 149.31 91.8 149.33 92.03 155 91.62 157.05 91.45 159.54 91.26 159.14 86.08 154.68 86.43 154.62 85.17 154.07 85.08 153.02 85.08 152.77 84.92 152.49 84.68 151.41 84.48 151.32 82.92 150.72 82.59 149.99 82.66 149.96 82.15 152.88 81.89 153.03 81.98 153.54 81.91 153.74 81.78 153.76 81.61 153.74 81.41 153.6 81.17 153.19 80.81 152.99 78.18 153.24 77.59 153.09 75.2 153.43 75.17 153.43 75.04 153.41 74.88 153.17 74.9 153.13 74.96 152.59 75 152.37 73.7 152.16 73.5 151.56 72.76 150.86 71.83 153.52 71.63 153.49 71.38 152.82 71.39 151.6 71.51 151.57 71.35 151.08 71.38 150.87 71.39 150.88 71.46 150.66 71.48 150.4 71.5 150.1 71.53 149.9 71.55 149.83 71.5 149.76 71.5 149.73 71.73 149.29 71.81 148.77 71.44 148.68 70.19 147.48 70.09 146.64 69.65 147.07 69.16 146.96 69.04 147.3 68.44 147.31 67.11 147.13 67.14 147.5 66.61 147.89 65.69 148.04 64.99 148.2 64.93 148.22 64.55 148.55 64.49 148.52 63.36 148.85 62.17 148.48 61.14 148.24 60.1 148.22 60.02 150.78 61.29 150.98 60.77 148.26 59.38 148.07 59.45 148.01 59.37 147.81 59.09 147.81 58.8 147.29 57.87 147.23 57.87 147.25 57.49 147.15 57.48 147.13 57.39 147.08 57.08 147.05 56.98 147.01 56.87 147 56.88 146.99 56.85 146.97 56.85 146.95 56.81 146.94 56.77 147 56.75 147.01 56.73 147.01 56.7 146.97 56.42 146.93 56.28 147.11 56.23 146.88 55.57 146.92 55.55 149.02 55.39 149.32 55.46 152.89 57.5 152.92 57.51 152.95 57.5 152.96 57.48 152.96 57.45 152.66 54.58 152.99 54.39 152.6 53.89 152.56 53.62 147.68 53.98 146.73 54.03 146.61 52.94 146.68 52.91 149.03 52.57 149.01 52.44 149.1 52.43 148.91 51.12 148.87 51.09 146.5 51.44 146.48 51.11 146.3 51.12 146.27 50.72 146 50.48 143.36 50.72 143.26 50.66 142.95 50.86 142.97 51.23 142.52 51.69 140.91 53.23 140.82 53.18 140.59 53.41 140.59 53.57 134.97 58.95 133.78 60.09 133.58 60.17 133.5 60.17 133.43 60.17 133.35 60.12 133.4 60 133.4 59.88 133.36 59.73 133.23 59.6 134.33 58.46 135.95 56.97 136.03 56.85 136.02 56.73 136.08 56.64 139.25 53.52 139.49 53.2 139.57 53.12 139.64 53.07 139.91 52.95 139.97 52.9 140.02 52.84 140.09 52.9 140.56 52.43 140.68 52.27 140.87 52.15 141.35 51.64 141.34 51.63 141.41 51.54 141.49 51.45 141.6 51.37 141.61 51.38 142.09 50.91 142.07 50.89 142.14 50.8 142.24 50.7 142.33 50.64 142.35 50.65 142.62 50.38 142.85 49.99 142.9 49.97 142.85 49.85 143.33 49.63 143.34 49.66 143.5 49.55 143.5 49.58 143.65 49.47 143.66 49.5 143.81 49.4 143.82 49.43 143.96 49.33 143.97 49.35 144.12 49.25 145.95 48.36 146.12 48.27 146.11 48.2 145.84 44.21 145.83 43.72 146.36 43.68 148.34 43.52 148.32 43.26 148.3 43 145.77 43.18 145.74 42.47 146.04 42.39 148.33 42.2 148.32 42.16 149.28 42.08 149.25 41.61 146.23 41.85 145.73 41.64 145.73 41.19 145.79 40.95 145.96 40.84 145.96 40.68 146.05 40.67 146.04 40.57 146.21 40.5 146.44 40.48 146.34 39.75 146.24 39.76 145.95 37.89 146.02 37.85 146.1 37.82 146.19 37.8 146.28 37.8 149.61 37.54 149.65 37.5 149.47 35.09 149.43 35.06 146.14 35.32 146.16 34.62 146.21 34.58 146.3 34.53 146.39 34.51 148.75 34.04 148.78 34.03 148.79 34 148.8 33.97 148.7 33.5 148.68 33.47 148.65 33.45 148.62 33.44 146.59 33.88 146.43 33.07 148.82 32.35 148.59 31.58 146.23 32.33 146.2 32.25 145.92 31.57 145.4 31.8 145.35 31.83 145.3 31.72 145.16 31.67 145.06 31.53 145 31.4 145.22 31.31 145.21 31.29 145.02 30.83 144.99 30.75 144.77 30.84 144.76 30.81 144.41 30 144.56 29.87 141.21 26.32 141.3 26.23 141.37 26.17 140.89 25.67 141.25 25.42 140.94 24.99 141.12 24.86 141.09 24.82 141.29 24.68 141 24.27 140.87 24.34 140.78 24.4 140.77 24.45 140.64 24.56 140.6 24.51 140.54 24.42 140.41 24.24 141.76 22.89 141.31 22.26 140.83 22.54 140.35 22.8 140.17 22.91 139.74 23.15 139.25 22.48 139.32 22.42 139.31 22.4 139.35 22.36 139.32 22.32 139.28 22.36 139.25 22.33 139.18 22.38 138.84 21.92 138.92 21.86 138.9 21.84 139.22 21.61 139.25 21.65 139.68 21.34 139.57 21.21 139.15 21.52 139.18 21.57 138.87 21.8 138.85 21.78 138.2 22.27 138.07 22.1 137.8 21.72 137.88 21.66 137.8 21.55 138.2 21.27 138.11 21.15 138.8 20.66 139.28 20.15 139.86 19.71 139.87 19.67 139.86 19.64 139.57 19.28 139.54 19.26 139.51 19.27 137.35 20.88 137.29 20.88 137.24 20.82 137.24 20.77 137.53 20.56 137.51 20.54 137.57 20.49 137.49 20.37 137.4 20.26 137.34 20.3 137.32 20.28 137.04 20.48 136.92 20.48 136.89 20.43 136.92 20.32 137.22 20.11 137.21 20.09 139.09 18.72 138.76 18.27 136.81 19.71 136.67 19.79 136.51 19.83 136.34 19.59 136.35 19.55 136.34 19.5 136.32 19.48 136.29 19.48 136.26 19.47 136.18 19.36 136.18 19.33 136.18 19.31 136.15 19.3 136.13 19.3 136.04 19.18 136.06 19.13 136.04 19.08 136.01 19.07 135.97 19.07 135.94 19.03 135.95 19 135.7 18.65 135.68 18.66 135.59 18.66 135.43 18.45 135.02 17.86 135.05 17.84 134.97 17.71 135.03 17.67 134.99 17.56 134.97 17.51 134.93 17.48 134.85 17.42 134.79 17.47 134.7 17.33 134.65 17.36 134.4 16.97 134.45 16.89 134.53 16.81 134.57 16.76 134.91 16.52 135.68 15.98 136.94 15.07 136.57 14.58 133.99 16.4 133.54 15.76 136.14 13.92 135.02 12.32 132.66 13.99 132.51 14.05 132.36 14.08 132.03 13.6 132.03 13.55 132.09 13.47 132.18 13.38 134.53 11.74 134.55 11.71 134.55 11.67 134.23 11.22 134.2 11.21 134.17 11.21 132.9 12.12 132.86 12.13 132.12 12.64 131.75 12.09 133.77 10.56 133.37 10.04 131.13 11.71 130.71 11.76 130.58 11.58 131.27 6.21 130.64 5.64 128.5 8 127.8 7.34 129.06 5.39 128.58 5.08 127.21 7.2 126.74 6.9 126.31 6.62 127.24 4.04 126.67 3.81 125.74 6.42 125.69 6.52 125.62 6.75 124.95 6.35 124.69 2.15 124.57 2.15 123.94 2.19 123.89 2.19 124.09 5.4 123.25 5.04 123.16 5.25 123.11 5.22 123.15 5.12 123.13 5.05 123.05 5.02 123.03 4.97 123.08 4.96 123.06 4.9 123.01 4.91 122.98 4.81 122.9 4.83 122.86 4.8 122.67 4.86 122.7 4.98 122.66 4.99 122.12 4.7 122.08 4.58 121.43 4.32 121.32 4.05 121.14 3.67 121.11 3.59 121.11 3.5 120.97 3.48 120.97 3.44 120.7 3.39 120.55 3.28 120.45 3.07 120.16 2.38 120.01 2.07 120.04 1.69 120.16 0.96 120.18 0.85 120.21 0.85 120.22 0.77 120.2 0.76 120.02 0.3 119.72 0.19 119.7 0.18 119.53 0.26 119.46 0.22 119.17 0.36 119.15 0.43 118.8 0.59 118.72 0.84 118.67 0.9 118.91 1.41 118.97 1.41 119.21 1.94 119.25 2.05 119.27 2.08 119.24 2.08 119.37 2.37 119.4 2.35 119.51 2.59 119.51 2.62 119.59 2.79 119.7 3.02 119.71 3.04 119.8 3.23 119.66 4 119.35 3.94 119.03 3.89 118.75 3.84 118.22 3.04 118.24 3.01 117.13 1.39 116.97 1.49 118.07 3.11 117.89 3.23 117.54 3.47 117.36 3.59 117.25 3.56 116.74 3.29 116.71 3.22 116.44 3.08 116.31 3.35 116.23 3.47 116.51 3.59 116.61 3.56 117.05 3.79 115.19 3.71 115.2 3.43 114.81 3.37 114.74 3.38 114.74 3.24 114.22 3.47 114.09 3.44 113.9 3.28 111.95 1.65 110.12 0.11 110.05 0.08 109.49 0.06 109.39 0.19 109.57 0.42 109.78 0.6 109.6 0.83 109.02 0.52 108.79 0.36 108.34 0 108.05 0.36 110.04 2.03 111.7 3.46 111.69 3.8 113.06 3.86 113.05 4.42 112.92 4.44 112.97 4.65 112.89 4.66 112.9 4.75 111.78 4.93 111.73 4.64 111.43 4.69 111.42 4.61 111.63 4.57 111.64 4.27 111.39 4.27 111.28 4.17 111.18 3.64 111.01 3.5 110.73 3.38 110.64 3.56 110.04 3.55 109.81 3.43 109.8 3.54 108.83 3.5 108.82 3.84 110.03 3.84 110.03 3.9 111.11 3.9 111.18 4.22 109.59 4.47 109.61 4.65 108.22 4.86 108.12 4.2 108.23 4.18 108.37 4.07 108.36 4 108.03 4.07 107.99 3.84 107.92 3.84 107.87 3.85 107.7 3.97 107.65 3.71 107.55 3.71 107.55 3.66 107.53 3.66 107.33 3.32 107.17 3.4 106.41 2.7 105.96 2.27 105.77 2.09 105.52 1.85 105.46 1.91 105.53 1.98 105.5 2.01 105.62 2.12 105.65 2.09 106.02 2.46 106.34 2.75 106.66 3.04 107.02 3.38 106.97 3.43 107.47 3.94 107.52 4.29 106.8 5.16 106.63 5.34 106.45 5.51 106.25 5.7 105.67 6.2 105.44 6.36 105.12 6.59 104.8 6.81 104.21 7.05 103.81 7.13 103.35 7.07 102.9 6.89 102.42 6.63 102.02 6.33 101.73 6.07 101.44 5.64 101.38 5.42 101.33 5.2 101.28 4.86 101.05 4.9 100.91 4.94 100.71 4.96 100.26 4.87 99.97 4.78 99.7 4.76 99.49 4.66 99.4 4.65 99.19 4.74 98.96 4.82 98.71 4.95 98.43 5.13 98.37 5.14 98.32 5.12 98.22 5.09 98.15 5.09 98.11 5.15 98.08 5.26 97.46 5.36 97.14 3.37 97.12 3.33 97.08 3.31 96.58 3.39 96.54 3.42 96.53 3.47 96.92 5.9 96.84 5.99 96.22 6.09 96.14 6.02 95.75 3.57 95.71 3.54 95.68 3.53 95.34 3.59 95.29 3.62 95.27 3.67 95.67 6.1 95.61 6.18 94.97 6.29 94.89 6.22 94.58 4.31 94.26 4.37 94.58 6.38 94.6 6.62 94.84 8.05 94.74 8.1 94.55 8.14 94.43 8.19 94.33 8.26 94.25 8.34 94.16 8.4 94.02 8.45 93.13 8.6 92.97 8.56 92.88 8.51 92.82 8.42 92.8 8.29 92.73 7.84 92.65 7.41 92.57 6.96 92.53 6.74 92.48 6.66 92.42 6.63 92.32 6.62 92.22 6.63 90.89 6.82 90.83 6.8 90.81 6.74 90.81 6.68 90.74 6.19 90.68 5.79 90.65 5.76 90.61 5.75 90.53 5.75 88.37 6.1 88.33 6.1 88.2 6.12 88.13 6.13 83.07 6.96 83.04 7.05 82.97 7.05 82.93 7 82.86 7.01 82.87 7.07 82.84 7.18 82.9 7.29 83.01 7.94 82.92 8.09 78.01 8.88 77.75 7.24 80.85 6.05 81.59 5.88 81.62 5.84 81.58 5.65 82.69 5.3 82.75 5.41 82.68 5.42 82.72 5.69 83.04 5.64 82.99 5.37 83.04 5.28 83.12 5.23 85.09 4.94 85.35 4.86 85.46 4.78 85.81 4.21 85.85 4.03 85.83 3.9 85.77 3.86 85.71 3.9 85.25 4.49 84.98 4.73 83.4 5 82.8 5.08 82.04 5.35 81.45 5.54 80.3 5.69 79.76 5.64 77.5 5.95 76.65 6.67 76.44 6.83 76.23 6.93 75.8 6.96 75.58 6.96 75.36 6.87 74.9 6.95 74.25 7.03 73.91 7.12 73.13 7.55 72.57 7.69 71.91 7.87 71.64 7.89 71.22 7.95 70.87 7.94 70.57 7.93 70.4 7.93 70.15 8.05 69.81 8.17 69.72 8.29 69.66 8.44 69.64 8.58 69.32 8.63 69.32 8.47 69.36 7.99 69.43 7.87 69.54 7.76 69.41 7.71 69.32 7.57 69 7.63 68.49 7.77 67.9 8 67.3 8.2 66.78 8.33 66.47 8.43 66.19 8.48 65.92 8.53 65.69 8.54 64.99 8.75 64.44 8.94 63.68 9.06 63.09 9.19 62.13 9.41 61.52 9.57 60.88 9.68 60.61 9.66 60.48 9.62 60.21 9.53 59.91 9.56 59.6 9.67 59.15 9.73 58.73 9.79 58.47 9.74 58.18 9.62 57.87 9.39 57.39 9 56.81 8.56 56.15 8.01 55.73 7.73 55.36 7.55 54.85 7.23 54.41 6.98 54.08 6.83 53.65 6.72 53.28 6.7 52.88 6.64 52.69 6.57 52.54 6.46 52.36 6.15 52.19 5.83 51.98 5.51 51.72 5.21 51.38 4.89 51.04 4.64 50.62 4.36 49.74 3.97 48.91 3.8 48.22 3.64 47.5 3.54 47.28 3.53 46.69 3.54 46.49 3.53 45.99 3.45 45.84 3.41 45.63 3.31 45.1 3.11 44.95 3.05 44.81 2.97 44.53 2.8 44.34 2.31 44.31 1.83 44.25 1.66 44.13 1.29 44.07 1.09 43.9 0.88 43.73 0.8 43.55 0.71 43.36 0.67 43.09 0.67 42.71 0.73 42.55 1.24 42.5 1.4 42.53 2.57 42.52 2.9 42.45 3.34 42.43 3.77 42.37 4.11 42.34 4.4 42.29 4.58 42.02 5 41.76 5.26 41.37 8 41.33 8.54 41.32 9.23 40.95 10.38 40.62 11.69 40.46 11.83 40.3 11.92 40.28 12.06 40.25 12.14 40.2 12.2 40.19 12.29 40.03 13.41 39.45 15.13 39.26 15.59 39.17 15.75 39.15 15.93 39.15 16.08 39.09 16.19 39 16.28 38.93 16.42 38.85 16.48 38.84 16.69 38.82 16.81 38.75 16.86 38.65 16.89 38.62 17.38 38.3 17.54 38.2 18.05 37.69 19.07 37.63 19.17 37.52 19.57 37.39 20.1 37.21 20.77 37 21.19 36.87 21.55 36.79 21.92 36.66 22.35 36.45 22.97 36.39 23.23 36.23 23.72 36.14 24.06 35.95 24.59 35.79 24.95 35.61 25.32 35.52 25.58 35.4 25.89 35.32 26.35 34.95 27.11 34.58 27.48 34.2 28.24 33.98 28.92 33.87 29.11 33.62 29.37 33.32 29.7 33.11 30.08 33.01 30.2 32.74 30.51 32.15 31.04 31.9 31.4 31.37 31.74 31.2 31.93 31.11 32.03 30.9 32.02 30.52 32.24 29.48 32.34 28.58 32.15 28.19 32.56 28.09 32.68 27.92 32.88 27.89 32.92 27.31 33.58 26.46 34.14 25.69 34.43 25.35 34.56 25.17 34.39 24.91 34.52 24.17 34.84 23.92 34.83 23.57 34.75 23.35 34.43 23.16 34.08 22.98 34.1 22.85 34.45 21.91 34.97 20.79 35.2 19.93 34.86 19.39 34.19 19.33 34.44 18.11 33.63 17.93 33.84 17.6 33.52 17.24 33.32 16.61 33.61 14.84 34.12 12.69 34.23 12.27 34.07 11.18 34.39 10.9 34.25 10.88 34.17 10.88 34.12 10.82 34.06 10.71 34 10.61 34.01 10.49 34.06 10.36 33.98 10.22 33.96 10.18 33.89 10.12 33.88 10.02 33.92 9.93 33.98 9.94 34.02 9.98 34.06 10.01 34.1 10 34.14 9.97 34.19 9.93 34.25 9.93 34.39 9.93 34.58 9.94 34.65 9.94 34.76 9.89 34.82 9.25 35.19 9.07 34.98 9.1 35.31 8.52 35.81 8.33 36.02 8.05 36.34 7.58 36.82 7.01 37.39 6.67 37.55 6.46 37.79 6.38 37.92 6.26 38.01 5.98 38.24 5.92 38.42 5.76 38.83 5.55 38.82 5.3 39.13 5.13 38.87 4.58 39.2 3.97 39.08 3.73 39.61 3.21 39.98 3.01 40.33 2.97 40.29 2.65 39.87 2.4 39.74 2.24 40.02 2.69 40.41 2.19 40.74 2.18 40.74 2.12 41.02 2.19 41.23 2.17 41.39 2.17 41.43 2.07 41.56 2.08 41.63 2.12 41.67 2.06 41.8 1.93 41.89 1.91 41.88 1.82 41.9 1.68 41.78 1.62 41.76 1.68 41.7 1.63 41.67 1.57 41.67 1.48 41.73 1.43 41.82 1.4 41.92 1.44 42.03 1.5 42.09 1.49 42.21 1.43 42.29 1.37 42.32 1.29 42.29 1.26 42.21 1.2 42.12 1.17 42.21 1.14 42.3 1.18 42.42 1.28 42.48 1.36 42.49 1.41 42.55 1.47 42.56 1.45 42.66 1.42 42.76 1.41 42.83 1.33 42.85 1.22 42.84 1.16 42.9 1.15 42.98 1.14 43.05 1.11 43.09 1.14 43.13 1.12 43.17 1.02 43.18 1.01 43.26 0.96 43.33 0.94 43.38 0.98 43.49 1.04 43.48 1.05 43.55 1.02 43.58 1.03 43.65 1.08 43.68 1.08 43.73 1.05 43.79 1 43.79 0.9 43.73 0.79 43.71 0.76 43.67 0.7 43.63 0.63 43.62 0.61 43.64 0.61 43.68 0.58 43.7 0.55 43.68 0.53 43.66 0.48 43.66 0.46 43.7 0.47 43.73 0.46 43.77 0.48 43.81 0.54 43.85 0.56 43.9 0.58 43.93 0.57 43.96 0.52 43.98 0.46 44 0.4 43.99 0.34 43.98 0.3 43.98 0.29 44.01 0.24 44.05 0.15 43.91 0.09 43.98 0.04 44.05 0.03 44.12 0 44.14 0 44.19 0.03 44.21 0.07 44.18 0.08 44.19 0.03 44.31 0.05 44.39 0.07 44.44 0.06 44.49 0.1 44.54 0.2 44.6 0.55 44.89 0.63 45.2 0.55 45.66 0.65 45.88 0.67 46.24 0.66 46.45 0.47 47.09 0.41 47.35 0.32 47.77 0.33 47.96 0.35 48.01 0.35 48.03 0.34 48.05 0.32 48.05 0.29 48.03 0.23 48.04 0.21 48.07 0.21 48.1 0.26 48.14 0.3 48.15 0.33 48.15 0.38 48.17 0.38 48.27 0.41 48.37 0.45 48.45 0.47 48.49 0.6 48.55 0.66 48.52 0.73 48.48 0.78 48.5 0.81 48.57 0.87 48.6 0.86 48.67 0.87 48.75 0.95 48.78 0.94 48.83 0.99 48.93 1.03 49 1.18 49.28 1.8 52 1.9 53.02 2.05 54.47 2.32 57.1 2.82 60.63 2.97 62.55 3.01 63.79 3.03 64.36 3.1 69.48 3.37 71.03 3.44 71.64 3.52 72.3 3.67 73.76 3.83 75.14 4.13 78.17 4.25 79.37 4.46 80.95 4.79 82.95 4.83 84.08 5.21 87.33 5.47 89.67 5.8 92.98 6 94.98 6.19 97.44 6.24 98.24 6.4 99.05 6.75 101.48 6.95 103.33 7.35 106.55 7.43 107.97 7.43 108.42 7.51 110.67 7.84 111.88 7.97 112.64 8.12 114.19 8.19 114.92 8.22 115.78 8.21 116.43 8.21 117.19 8.3 117.96 8.36 118.73 8.38 119.72 8.49 120.32 8.48 121.61 8.4 122.29 8.4 122.81 8.48 124.48 8.58 125.87 8.84 127.72 9.34 130.44 9.54 132.01 9.56 132.42 9.68 133.42 10.3 135.75 10.43 136.38 10.85 137.7 11.85 141.49 12.03 142.35 12.25 144.09 12.45 145.14 12.57 145.66 12.73 146.19 12.95 147.09 13.13 147.68 13.21 148.16 13.28 148.83 13.36 149.25 13.56 149.92 13.7 150.21 13.76 150.5 13.78 150.83 13.74 151 13.74 151.23 13.82 151.51 14 151.96 14.2 152.69 14.36 153.17 14.39 153.45 14.53 154.05 14.67 154.54 14.93 155.35 15.05 155.61 15.11 155.82 15.15 156.03 15.15 156.35 15.21 156.75 15.29 157.1 15.37 157.88 15.51 158.46 15.82 159.56 16 160.67 16.18 161.5 16.28 163.04 16.4 163.81 16.6 164.82 17.02 166.46 17.08 167.1 17.18 167.68 17.78 170.15 17.88 170.72 17.94 171.37 18.3 173.84 19.09 177.03 19.39 178.5 19.75 180.12 19.85 180.48 20.15 181.23 20.25 181.7 20.29 182.32 20.47 184.04 20.55 185.02 20.67 185.54 20.93 186.46 21.12 187.91 21.18 188.95 21.16 189.84 21.34 191.16 21.44 193.77 21.64 196.45 21.62 197.04 21.64 197.59 21.72 198.45 21.84 199.36 21.84 199.78 21.72 200.65 21.7 201.13 21.7 201.59 21.88 202.88 21.82 203.73 21.84 205.82 21.78 206.41 21.72 207.47 21.74 208.35 21.66 209.22 21.58 209.53 21.5 210.18 21.38 210.5 21.26 210.5 21.08 210.55 21.04 210.75 21.12 210.91 21.16 210.88 21.22 210.94 21.32 210.84 21.4 210.87 21.42 210.94 21.4 211.11 21.32 211.23 21.32 211.44 21.4 211.59 21.48 211.62 21.54 211.77 21.6 211.86 21.82 211.9 21.96 211.96 22.5 213.19 22.58 213.71 22.59 214.24 22.52 214.3 22.44 214.47 22.4 214.69 22.68 214.87 22.98 215.12 23.09 215.37 23.2 215.9 23.18 216.22 23.3 217.46 23.42 217.97 23.48 219.33 23.48 220.43 23.4 221.91 23.4 222.71 23.5 224.14 23.44 225.1 23.44 226.89 23.46 227.4 23.44 228.71 23.5 229.33 23.52 229.9 23.66 231.63 23.64 232.15 23.58 232.78 23.56 233.4 23.5 233.92 23.46 234.59 23.46 235.23 23.52 236.28 23.58 236.84 23.6 237.52 23.43 238.84 23.48 239.34 23.34 240.73 23.46 242.26 23.6 243.1 23.61 243.86 23.45 245 23.47 245.43 23.55 245.9 23.39 247.14 23.37 247.99 23.27 249.35 23.17 249.82 22.97 250.35 22.89 250.64 22.95 250.89 23.09 251.21 23.25 251.82 23.31 252.49 23.33 252.97 23.29 253.67 23.06 255 152.33 255 152.08 254.68 151.89 254.32"/></g></g></svg>