<svg xmlns="http://www.w3.org/2000/svg" viewBox="0 0 77.68 65.63"><defs><style>.cls-1{fill:#27acb0;fill-rule:evenodd;}.cls-2{fill:#3cbfbf;}.cls-3{fill:none;stroke:#d1d1d1;stroke-linecap:round;stroke-miterlimit:10;stroke-width:1.5px;}.cls-4{fill:#d1d1d1;}</style></defs><title>Asset 3</title><g id="Layer_2" data-name="Layer 2"><g id="Layer_26" data-name="Layer 26"><path class="cls-1" d="M72,23.47a8,8,0,0,1-7.64-14l.37-.18L59.62,0,0,32.64,5.1,42a8,8,0,1,1,7.64,14l5.32,9.71L77.68,33l-5.33-9.73Z"/><rect class="cls-2" x="-3.14" y="16.05" width="67.97" height="4.33" transform="translate(-4.96 17.05) rotate(-28.7)"/><rect class="cls-2" x="12.85" y="45.25" width="67.97" height="4.33" transform="translate(-17.01 28.31) rotate(-28.7)"/><line class="cls-3" x1="39.99" y1="29.83" x2="35.2" y2="31.25"/><line class="cls-3" x1="36.88" y1="28.14" x2="38.31" y2="32.94"/><circle class="cls-3" cx="52.26" cy="28.09" r="3.02" transform="translate(11.92 71.6) rotate(-75.43)"/><circle class="cls-4" cx="27.57" cy="41.32" r="2.26" transform="translate(-19.41 25.19) rotate(-37.34)"/></g></g></svg>