<svg xmlns="http://www.w3.org/2000/svg" viewBox="0 0 66.18 79.92"><defs><style>.cls-1{fill:#27acb0;fill-rule:evenodd;}.cls-2{fill:#3cbfbf;}.cls-3{fill:none;stroke:#d1d1d1;stroke-linecap:round;stroke-miterlimit:10;stroke-width:1.5px;}.cls-4{fill:#d1d1d1;}</style></defs><title>Asset 4</title><g id="Layer_2" data-name="Layer 2"><g id="Layer_26" data-name="Layer 26"><path class="cls-1" d="M26.51,1.09a8,8,0,0,1-15.89,1c0-.14,0-.27,0-.41L0,2.32,4.19,70.16l10.6-.65a8,8,0,1,1,15.89-1l11.05-.68L37.54,0,26.47.68C26.48.82,26.5,1,26.51,1.09Z"/><rect class="cls-2" x="-29.73" y="33.94" width="67.97" height="4.33" transform="translate(-31.52 42.58) rotate(-93.53)"/><rect class="cls-2" x="3.49" y="31.89" width="67.97" height="4.33" transform="translate(5.79 73.56) rotate(-93.53)"/><line class="cls-3" x1="18.65" y1="32.77" x2="17.9" y2="37.71"/><line class="cls-3" x1="15.8" y1="34.87" x2="20.75" y2="35.61"/><circle class="cls-3" cx="22.29" cy="20.93" r="3.02" transform="translate(-8.05 24.69) rotate(-50.26)"/><circle class="cls-4" cx="23.77" cy="48.9" r="2.26" transform="translate(-9.78 6.11) rotate(-12.18)"/><path class="cls-1" d="M55.17,11.46A8,8,0,0,1,39.42,9.15c0-.14.05-.27.08-.4L29,7.2,19.09,74.45,29.59,76a8,8,0,0,1,15.75,2.31l11,1.61,9.88-67.25-11-1.61C55.19,11.19,55.19,11.33,55.17,11.46Z"/><rect class="cls-2" x="-7.82" y="38.97" width="67.97" height="4.33" transform="translate(-18.34 61.05) rotate(-81.64)"/><rect class="cls-2" x="25.11" y="43.81" width="67.97" height="4.33" transform="translate(5.01 97.76) rotate(-81.64)"/><line class="cls-3" x1="40.94" y1="40.84" x2="39.19" y2="45.52"/><line class="cls-3" x1="37.73" y1="42.31" x2="42.41" y2="44.06"/><circle class="cls-3" cx="46.95" cy="30" r="3.02" transform="translate(-8.48 35.62) rotate(-38.37)"/><circle class="cls-4" cx="42.63" cy="57.68" r="2.26" transform="translate(-0.28 0.21) rotate(-0.28)"/></g></g></svg>