<?xml version="1.0" encoding="utf-8"?>
<!-- Generator: Adobe Illustrator 17.0.0, SVG Export Plug-In . SVG Version: 6.00 Build 0)  -->
<!DOCTYPE svg PUBLIC "-//W3C//DTD SVG 1.1//EN" "http://www.w3.org/Graphics/SVG/1.1/DTD/svg11.dtd">
<svg version="1.1" id="Layer_1" xmlns="http://www.w3.org/2000/svg" xmlns:xlink="http://www.w3.org/1999/xlink" x="0px" y="0px"
	 width="558.378px" height="515.676px" viewBox="0 0 558.378 515.676" enable-background="new 0 0 558.378 515.676"
	 xml:space="preserve">
<g transform="matrix(1 0 0 1 0 0)">
	<g>
		<polygon fill="#04243E" points="461.191,246.171 140.988,246.171 184.061,156.774 427.058,156.774 		"/>
		<polygon fill="#04243E" points="226.321,254.298 67.032,254.298 88.162,213.663 209.254,213.663 		"/>
		<polygon fill="#04243E" points="530.27,287.618 32.899,286.806 49.966,229.917 457.127,229.917 522.143,229.917 		"/>
		<path fill="#04243E" d="M534.334,290.869c0,3.251-2.438,4.063-5.689,4.063H28.023c-3.251,0-5.689-0.813-5.689-4.063l0,0
			c0-3.251,2.438-4.064,5.689-4.064h500.622C531.896,286.806,534.334,287.618,534.334,290.869L534.334,290.869z"/>
	</g>
	<circle fill="#09496C" cx="141.8" cy="287.618" r="36.571"/>
	<path fill="#04243E" d="M141.8,251.047c20.317,0,36.571,16.254,36.571,36.571c0,20.317-16.254,36.571-36.571,36.571"/>
	<circle fill="#F3FAFE" cx="141.8" cy="287.618" r="20.317"/>
	<path fill="#DFECF6" d="M141.8,266.488c11.378,0,20.317,8.94,20.317,20.317c0,11.378-8.94,20.317-20.317,20.317"/>
	<circle fill="#09496C" cx="453.064" cy="287.618" r="36.571"/>
	<path fill="#04243E" d="M453.064,251.047c20.317,0,36.571,16.254,36.571,36.571c0,20.317-16.254,36.571-36.571,36.571"/>
	<circle fill="#F3FAFE" cx="453.064" cy="287.618" r="20.317"/>
	<path fill="#DFECF6" d="M453.064,266.488c11.378,0,20.317,8.94,20.317,20.317c0,11.378-8.94,20.317-20.317,20.317"/>
	<g>
		<polygon fill="#F5CB21" points="37.775,270.552 58.905,270.552 58.905,238.044 47.527,238.044 		"/>
		<path fill="#F5CB21" d="M280.772,177.091c0,1.625-1.625,4.063-3.251,4.063h-16.254c-1.625,0-3.251-2.438-3.251-4.063l0,0
			c0-1.625,1.625-4.063,3.251-4.063h16.254C279.959,173.028,280.772,175.466,280.772,177.091L280.772,177.091z"/>
		<path fill="#F5CB21" d="M280.772,193.345c0,1.625-1.625,4.063-3.251,4.063h-16.254c-1.625,0-3.251-2.438-3.251-4.063l0,0
			c0-1.625,1.625-4.063,3.251-4.063h16.254C279.959,189.282,280.772,191.72,280.772,193.345L280.772,193.345z"/>
		<path fill="#F5CB21" d="M280.772,209.599c0,1.625-1.625,4.063-3.251,4.063h-16.254c-1.625,0-3.251-2.438-3.251-4.063l0,0
			c0-1.625,1.625-4.064,3.251-4.064h16.254C279.959,205.536,280.772,207.974,280.772,209.599L280.772,209.599z"/>
		<path fill="#F5CB21" d="M355.54,177.091c0,1.625-1.625,4.063-3.251,4.063h-16.254c-1.625,0-3.251-2.438-3.251-4.063l0,0
			c0-1.625,1.625-4.063,3.251-4.063h16.254C354.727,173.028,355.54,175.466,355.54,177.091L355.54,177.091z"/>
		<path fill="#F5CB21" d="M355.54,193.345c0,1.625-1.625,4.063-3.251,4.063h-16.254c-1.625,0-3.251-2.438-3.251-4.063l0,0
			c0-1.625,1.625-4.063,3.251-4.063h16.254C354.727,189.282,355.54,191.72,355.54,193.345L355.54,193.345z"/>
		<path fill="#F5CB21" d="M355.54,209.599c0,1.625-1.625,4.063-3.251,4.063h-16.254c-1.625,0-3.251-2.438-3.251-4.063l0,0
			c0-1.625,1.625-4.064,3.251-4.064h16.254C354.727,205.536,355.54,207.974,355.54,209.599L355.54,209.599z"/>
	</g>
	<path fill="#61255E" d="M141.8,19.428c8.127,2.438,14.629,8.94,15.441,16.254c0,0.813,0.813,1.625,1.625,1.625
		c0.813,0.813,1.625,0,2.438,0c4.064-6.502,13.003-8.94,21.13-6.502c10.565,2.438,17.067,12.19,14.629,21.943
		c-0.813,3.251-2.438,6.502-5.689,8.94l0,0l0,0l-47.137,32.508l-24.381-52.013l0,0l0,0c-1.625-3.251-1.625-6.502-0.813-10.565
		C120.67,21.866,131.235,16.177,141.8,19.428z"/>
	<path fill="#61255E" d="M158.867,37.307c0.813,0.813,1.625,0,2.438,0c4.063-6.502,13.003-8.94,21.13-6.502
		c10.565,2.438,17.067,12.19,14.629,21.943c-0.813,3.251-2.438,6.502-5.689,8.94l0,0l0,0l-47.136,32.508"/>
	<path fill="#61255E" d="M74.346,79.568c4.063-1.625,8.94,0,11.378,2.438h0.813c0.813,0,0.813,0,0.813-0.813
		c0-4.063,3.251-8.127,7.314-9.752c5.689-1.625,11.378,0.813,13.003,5.689c0.813,1.625,0.813,3.251,0,5.689l0,0l0,0l-11.378,28.444
		L70.283,95.822l0,0l0,0c-1.625-0.813-2.438-2.438-3.251-4.063C65.407,87.695,68.658,82.006,74.346,79.568z"/>
	<path fill="#61255E" d="M87.35,82.818C87.35,82.818,88.162,82.818,87.35,82.818c0.813-4.876,4.063-8.94,8.127-9.752
		c5.689-1.625,11.378,0.813,13.003,5.689c0.813,1.625,0.813,3.251,0,5.689l0,0l0,0l-11.378,28.444"/>
	<path fill="#61255E" d="M122.296,109.637c2.438,0,4.876,0.813,6.502,3.251c0,0,0,0,0.813,0h0.813
		c0.813-2.438,2.438-4.063,5.689-4.063c3.251,0,5.689,1.625,6.502,4.876c0,0.813-0.813,2.438-0.813,3.251l0,0l0,0l-9.752,14.629
		l-13.816-12.19l0,0l0,0c-2.438-1.625-2.438-2.438-2.438-4.063C114.981,112.888,119.045,109.637,122.296,109.637z"/>
	<path fill="#61255E" d="M128.797,112.888C129.61,112.888,129.61,112.888,128.797,112.888c0.813-2.438,3.251-4.063,6.502-4.876
		c3.251,0,5.689,1.625,6.502,4.876c0,0.813,0,2.438-0.813,3.251l0,0l0,0l-9.752,14.629"/>
	<path fill="#61255E" d="M115.794,144.583c1.625,1.625,2.438,4.876,1.625,6.502v0.813h0.813c2.438-0.813,4.876-0.813,6.502,1.625
		c2.438,2.438,3.251,5.689,0.813,8.127c-0.813,0.813-1.625,2.438-2.438,2.438l0,0l0,0l-17.879,2.438l0.813-18.692l0,0l0,0
		c0-0.813,0.813-2.438,1.625-3.251C109.292,142.145,112.543,142.145,115.794,144.583z"/>
	<path fill="#61255E" d="M117.419,151.898L117.419,151.898c2.438-0.813,5.689,0,7.314,1.625c2.438,2.438,3.251,6.502,1.625,8.94
		c-0.813,0.813-2.438,1.625-3.251,1.625l0,0l0,0l-17.879,2.438"/>
	<path fill="#61255E" d="M530.27,266.488c0,2.438-1.625,4.876-4.064,4.876l0,0c-2.438,0-4.063-2.438-4.063-4.876v-28.444
		c0-2.438,1.625-4.876,4.063-4.876l0,0c2.438,0,4.064,2.438,4.064,4.876V266.488z"/>
	<g>
		<path fill="#F3FAFE" d="M245.826,233.98c0,2.438-1.625,4.063-4.063,4.063h-13.816c-2.438,0-4.063-1.625-4.063-4.063l0,0
			c0-2.438,1.625-4.063,4.063-4.063h13.816C244.2,229.917,245.826,231.542,245.826,233.98L245.826,233.98z"/>
		<path fill="#F3FAFE" d="M335.223,233.98c0,2.438-1.625,4.063-4.063,4.063h-17.067c-2.438,0-4.064-1.625-4.064-4.063v-0.813
			c0-2.438,1.625-4.064,4.064-4.064h17.067C333.597,229.917,335.223,231.542,335.223,233.98L335.223,233.98z"/>
		<path fill="#F3FAFE" d="M413.242,233.98c0,2.438-1.625,4.063-4.063,4.063h-13.816c-2.438,0-4.064-1.625-4.064-4.063l0,0
			c0-2.438,1.625-4.063,4.064-4.063h13.816C411.616,229.917,413.242,231.542,413.242,233.98L413.242,233.98z"/>
	</g>
	<g>
		<polygon fill="#D65584" points="185.686,122.641 176.746,118.577 170.245,134.831 186.499,141.333 189.75,131.58 		"/>
		
			<rect x="164.749" y="125.142" transform="matrix(0.3618 -0.9322 0.9322 0.3618 -14.033 246.8501)" fill="#D65584" width="17.065" height="17.065"/>
		<polygon fill="#D65584" points="159.68,125.891 156.429,135.644 160.492,144.583 170.245,148.647 175.934,132.393 		"/>
	</g>
	<path fill="#61255E" d="M184.061,125.891l-5.689-2.438l-2.438,5.689l-5.689-2.438l-2.438,5.689l-5.689-2.438l-2.438,5.689
		l-3.251-0.813l4.063,8.94c3.251,8.127,12.19,11.378,20.317,8.127l0.813-0.813c8.127-3.251,11.378-12.19,8.127-20.317l-4.063-8.94
		L184.061,125.891z"/>
	<g>
		
			<rect x="175.961" y="125.204" transform="matrix(-0.3606 0.9327 -0.9327 -0.3606 360.2697 5.0634)" fill="#F4AFC7" width="4.876" height="1.625"/>
		
			<rect x="168.198" y="128.772" transform="matrix(-0.3636 0.9315 -0.9315 -0.3636 353.3969 17.7489)" fill="#F4AFC7" width="4.876" height="1.625"/>
		<polygon fill="#F4AFC7" points="186.499,125.079 186.499,124.266 185.686,121.828 184.873,124.266 		"/>
		<path fill="#F4AFC7" d="M162.118,142.958l-3.251-7.314l-2.438-0.813l4.063,8.94c3.251,8.127,12.19,11.378,20.317,8.127
			l0.813-0.813c0,0,0,0,0.813,0C174.308,154.336,165.369,151.085,162.118,142.958z"/>
		
			<rect x="159.728" y="132.044" transform="matrix(-0.3636 0.9315 -0.9315 -0.3636 344.895 30.1008)" fill="#F4AFC7" width="4.876" height="1.625"/>
	</g>
	<g>
		<path fill="#FFFEF6" d="M191.375,154.336c0,4.064-3.251,8.127-8.127,8.127l0,0c-4.063,0-8.127-3.251-8.127-8.127l0,0
			c0-4.063,3.251-8.127,8.127-8.127l0,0C188.124,146.209,191.375,150.272,191.375,154.336L191.375,154.336z"/>
		<path fill="#FFFEF6" d="M191.375,148.647c0,0,117.841-20.317,78.832-38.197s-7.314-35.759,96.711-60.952
			c73.956-17.879,111.34-42.26,123.53-59.327c0,0-8.94,30.883-17.879,36.571c0,0,24.381-0.813,26.819-2.438
			s-3.251,1.625-3.251,1.625s-46.324,26.006-137.346,44.698s-95.086,26.006-68.267,37.384c26.006,12.19,14.629,28.444-41.448,35.759
			S191.375,148.647,191.375,148.647z"/>
	</g>
	<polygon fill="#09496C" points="162.931,214.476 179.185,173.028 220.632,173.028 	"/>
	<path fill="#61255E" d="M282.397,147.834c0,0,51.2,1.625,34.946-18.692c-16.254-19.505,20.317-60.14,55.263-21.943
		s76.394,39.822,87.771,6.502c0,0,0,19.505-7.314,30.07l22.756,0.813c0,0-52.013,27.632-82.895,8.127
		c-30.883-20.317-58.514-58.514-69.079-39.822c-10.565,18.692,12.19,23.568,0,31.695
		C312.467,151.085,282.397,147.834,282.397,147.834z"/>
	<g>
		<path fill="#FFFEF6" d="M247.451,66.564c0,2.438-2.438,4.876-4.876,4.876l0,0c-2.438,0-4.876-2.438-4.876-4.876l0,0
			c0-2.438,2.438-4.876,4.876-4.876l0,0C245.013,61.688,247.451,64.126,247.451,66.564L247.451,66.564z"/>
		<path fill="#FFFEF6" d="M269.394,63.314c0,1.625-1.625,3.251-2.438,3.251l0,0c-1.625,0-2.438-1.625-2.438-3.251l0,0
			c0-1.625,1.625-2.438,2.438-2.438l0,0C267.769,60.063,269.394,61.688,269.394,63.314L269.394,63.314z"/>
		<path fill="#FFFEF6" d="M244.2,84.444c0,1.625-0.813,2.438-2.438,2.438l0,0c-1.625,0-2.438-0.813-2.438-2.438l0,0
			c0-1.625,0.813-2.438,2.438-2.438l0,0C243.388,82.006,244.2,82.818,244.2,84.444L244.2,84.444z"/>
		<path fill="#FFFEF6" d="M223.07,99.885c0,4.876-4.063,8.94-8.94,8.94l0,0c-4.876,0-8.94-4.063-8.94-8.94l0,0
			c0-4.876,4.063-8.94,8.94-8.94l0,0C219.007,90.945,223.07,95.009,223.07,99.885L223.07,99.885z"/>
		<path fill="#FFFEF6" d="M242.575,119.39c0,1.625-1.625,3.251-3.251,3.251l0,0c-1.625,0-3.251-1.625-3.251-3.251l0,0
			c0-1.625,1.625-3.251,3.251-3.251l0,0C240.95,116.139,242.575,117.764,242.575,119.39L242.575,119.39z"/>
	</g>
	<g>
		<path fill="#61255E" d="M409.991,92.571c0,5.689-4.876,10.565-10.565,10.565l0,0c-5.689,0-10.565-4.876-10.565-10.565l0,0
			c0-5.689,4.876-10.565,10.565-10.565l0,0C405.115,82.818,409.991,86.882,409.991,92.571L409.991,92.571z"/>
		<circle fill="#61255E" cx="344.975" cy="128.329" r="2.438"/>
		<circle fill="#61255E" cx="360.416" cy="140.52" r="3.251"/>
		<circle fill="#61255E" cx="366.105" cy="82.006" r="1.625"/>
		<circle fill="#61255E" cx="422.994" cy="121.828" r="5.689"/>
	</g>
</g>
<g>
	<g>
		<path fill="#61255E" d="M401.502,383.409v104.382v3.688h-60.242h-24.746h-61.285v-3.688v-52.758l42.584-51.615h18.701V487.8
			h24.746V383.409H401.502z M261.724,419.948l-39.148,47.163l-26.293-21.868l36.134-43.52c-5.487,1.367-12.486,1.637-19.907,0.405
			c-16.021-2.609-27.985-10.965-26.734-18.692c0.225-1.34,0.81-2.546,1.709-3.643c4.408-5.289,16.318-7.772,29.595-5.622
			c4.462,0.729,8.555,1.943,12.198,3.436c-2.132-3.292-4.066-7.124-5.622-11.361c-4.561-12.674-4.318-24.827,0.081-30.134
			c0.918-1.097,1.997-1.898,3.265-2.348c7.358-2.663,17.793,7.556,23.316,22.821c2.546,7.079,3.598,13.979,3.265,19.628
			l36.134-43.52l26.311,21.841l-38.482,46.335l-26.608-22.066l-15.814,19.061L261.724,419.948z M231.238,363.502
			c1.268,3.472,2.879,6.747,4.813,9.724l4.965,7.682l3.346,0.405c1.385-2.213,2.492-10.588-1.619-21.976
			c-4.264-11.766-10.633-17.253-12.953-17.865C228.225,343.748,227.128,352.123,231.238,363.502z M235.664,391.639l-1.07-3.175
			l-8.348-3.4c-3.337-1.358-6.845-2.357-10.453-2.932c-11.937-1.961-19.979,0.684-21.94,2.627c1.034,2.177,7.61,7.412,19.961,9.436
			C225.589,396.11,233.568,393.582,235.664,391.639z M367.473,360.057c1.106-1.547,3.013-2.357,4.678-2.357
			c0.171,0,0.333,0.009,0.495,0.018c1.943,0.216,3.274,0.855,4.129,1.988c0.846,1.106,1.115,2.618,0.801,4.498
			c-0.747,4.561-9.139,11.928-9.508,12.225c-0.153,0.135-0.351,0.198-0.558,0.198c-0.207,0-0.405-0.063-0.558-0.189
			c-0.369-0.306-8.833-7.664-9.589-12.234c-0.297-1.88-0.027-3.391,0.819-4.498c0.855-1.133,2.213-1.781,4.156-1.988
			c0.144-0.009,0.315-0.018,0.477-0.018C364.478,357.7,366.358,358.509,367.473,360.057z M371.692,359.346
			c4.354,0.657,4.696,5.559,4.696,5.559C376.945,358.59,371.692,359.346,371.692,359.346z M326.31,363.844
			c0.747-0.98,1.97-1.547,3.661-1.727c0.135,0,0.27-0.018,0.423-0.018c1.484,0,3.157,0.702,4.138,2.06
			c0.962-1.358,2.654-2.06,4.138-2.06c0.135,0,0.279,0.018,0.414,0.018c1.718,0.18,2.914,0.747,3.67,1.727
			c0.756,0.98,0.98,2.33,0.72,3.994c-0.666,4.039-8.096,10.543-8.402,10.803c-0.171,0.126-0.333,0.18-0.531,0.18
			c-0.18,0-0.36-0.045-0.504-0.162c-0.306-0.279-7.808-6.782-8.465-10.821C325.303,366.174,325.546,364.824,326.31,363.844z
			 M338.256,363.547c3.868,0.585,4.147,4.938,4.147,4.938C342.898,362.854,338.256,363.547,338.256,363.547z M335.261,327.727
			c-0.522-3.121-0.063-5.667,1.34-7.511c1.421-1.862,3.706-2.95,6.926-3.283c0.261-0.036,0.549-0.045,0.828-0.045
			c2.78,0,5.937,1.358,7.79,3.904c1.835-2.546,5.019-3.904,7.808-3.904c0.261,0,0.549,0.009,0.81,0.045
			c3.211,0.333,5.487,1.421,6.908,3.283c1.421,1.844,1.88,4.39,1.358,7.511c-1.259,7.664-15.274,19.907-15.877,20.428
			c-0.27,0.234-0.621,0.36-0.962,0.36c-0.333,0-0.666-0.126-0.945-0.36C350.643,347.634,336.52,335.391,335.261,327.727z
			 M359.17,319.65c7.286,1.088,7.808,9.274,7.808,9.274C367.914,318.372,359.179,319.65,359.17,319.65z M314.292,316.438
			c0-0.333-0.261-0.603-0.594-0.603s-0.603,0.27-0.603,0.603s0.27,0.594,0.603,0.594S314.292,316.771,314.292,316.438z
			 M327.219,316.222h-11.982v0.414h11.982V316.222z M313.492,329.571h0.405V317.59h-0.405V329.571z M313.897,302.747h-0.405v11.955
			h0.405V302.747z M312.403,317.446l-8.474,8.447l0.297,0.306l8.483-8.447L312.403,317.446z M323.459,325.901l-8.447-8.456
			l-0.297,0.297l8.447,8.447L323.459,325.901z M312.215,316.447h-11.964v0.414h11.964V316.447z M323.279,307.416l-0.306-0.288
			l-8.276,8.654l0.306,0.288L323.279,307.416z M321.165,302.226l-0.36-0.198l-5.811,10.489l0.351,0.198L321.165,302.226z
			 M312.727,312.768l-5.658-10.552l-0.369,0.189l5.667,10.543L312.727,312.768z M309.876,314.873l-11.46-3.472l-0.117,0.396
			l11.46,3.472L309.876,314.873z M328.568,321.17l-11.46-3.454l-0.126,0.396l11.469,3.454L328.568,321.17z M318.035,315.125
			l10.561-5.667l-0.189-0.351l-10.561,5.667L318.035,315.125z M299.333,323.787l10.561-5.667l-0.198-0.369l-10.552,5.667
			L299.333,323.787z M308.508,331.793l3.805-11.343l-0.396-0.135l-3.814,11.343L308.508,331.793z M318.61,331.838l0.405-0.126
			l-3.562-11.433l-0.396,0.126L318.61,331.838z M312.673,315.701l-8.456-8.465l-0.288,0.288l8.456,8.465L312.673,315.701z
			 M382.522,337.164c0-0.171-0.135-0.297-0.288-0.297c-0.18,0-0.297,0.135-0.297,0.297s0.126,0.297,0.297,0.297
			C382.387,337.46,382.522,337.325,382.522,337.164z M388.927,337.056h-5.919v0.198h5.919
			C388.927,337.253,388.927,337.056,388.927,337.056z M382.135,343.667h0.189v-5.919h-0.189V343.667z M382.315,330.381h-0.189v5.928
			h0.189V330.381z M381.56,337.667l-4.183,4.174l0.144,0.144l4.192-4.183L381.56,337.667z M387.065,341.841l-4.183-4.192
			l-0.144,0.144l4.183,4.192L387.065,341.841z M381.497,337.173h-5.937v0.189h5.937V337.173z M387.011,332.738l-0.144-0.135
			l-4.201,4.192l0.144,0.144L387.011,332.738z M386.075,330.219l-0.189-0.117l-3.184,5.019l0.189,0.117L386.075,330.219z
			 M381.74,335.346l-2.798-5.226l-0.189,0.099l2.807,5.226L381.74,335.346z M380.318,336.381l-5.667-1.718l-0.063,0.198l5.658,1.718
			L380.318,336.381z M389.611,339.52l-5.694-1.727l-0.072,0.198l5.694,1.727L389.611,339.52z M384.375,336.507l5.235-2.798
			l-0.108-0.198l-5.235,2.798L384.375,336.507z M375.11,340.798l5.235-2.807l-0.099-0.189l-5.235,2.807L375.11,340.798z
			 M379.644,344.765l1.898-5.613l-0.189-0.072l-1.889,5.622L379.644,344.765z M384.645,344.801l0.198-0.063l-1.727-5.676
			l-0.198,0.063L384.645,344.801z M381.722,336.795l-4.201-4.192l-0.144,0.144l4.201,4.192L381.722,336.795z"/>
	</g>
</g>
</svg>
