<?xml version="1.0" encoding="utf-8"?>
<!-- Generator: Adobe Illustrator 17.0.0, SVG Export Plug-In . SVG Version: 6.00 Build 0)  -->
<!DOCTYPE svg PUBLIC "-//W3C//DTD SVG 1.1//EN" "http://www.w3.org/Graphics/SVG/1.1/DTD/svg11.dtd">
<svg version="1.1" id="Layer_1" xmlns="http://www.w3.org/2000/svg" xmlns:xlink="http://www.w3.org/1999/xlink" x="0px" y="0px"
	 width="588.513px" height="514px" viewBox="0 0 588.513 514" enable-background="new 0 0 588.513 514" xml:space="preserve">
<g transform="matrix(1 0 0 1 0 0)">
	<g>
		<polygon fill="#04243E" points="479.987,253.442 159.784,253.442 202.857,164.045 445.854,164.045 		"/>
		<polygon fill="#04243E" points="245.117,261.569 85.828,261.569 106.959,220.934 228.051,220.934 		"/>
		<polygon fill="#04243E" points="549.067,294.89 51.695,294.077 68.762,237.188 475.924,237.188 540.94,237.188 		"/>
		<path fill="#04243E" d="M553.13,298.14c0,3.251-2.438,4.063-5.689,4.063H46.819c-3.251,0-5.689-0.813-5.689-4.063l0,0
			c0-3.251,2.438-4.064,5.689-4.064h500.622C550.692,294.077,553.13,294.89,553.13,298.14L553.13,298.14z"/>
	</g>
	<circle fill="#09496C" cx="160.597" cy="294.89" r="36.571"/>
	<path fill="#04243E" d="M160.597,258.318c20.317,0,36.571,16.254,36.571,36.571c0,20.317-16.254,36.571-36.571,36.571"/>
	<circle fill="#F3FAFE" cx="160.597" cy="294.89" r="20.317"/>
	<path fill="#DFECF6" d="M160.597,273.759c11.378,0,20.317,8.94,20.317,20.317c0,11.378-8.94,20.317-20.317,20.317"/>
	<circle fill="#09496C" cx="471.86" cy="294.89" r="36.571"/>
	<path fill="#04243E" d="M471.86,258.318c20.317,0,36.571,16.254,36.571,36.571c0,20.317-16.254,36.571-36.571,36.571"/>
	<circle fill="#F3FAFE" cx="471.86" cy="294.89" r="20.317"/>
	<path fill="#DFECF6" d="M471.86,273.759c11.378,0,20.317,8.94,20.317,20.317c0,11.378-8.94,20.317-20.317,20.317"/>
	<g>
		<polygon fill="#F5CB21" points="56.571,277.823 77.702,277.823 77.702,245.315 66.324,245.315 		"/>
		<path fill="#F5CB21" d="M299.568,184.363c0,1.625-1.625,4.063-3.251,4.063h-16.254c-1.625,0-3.251-2.438-3.251-4.063l0,0
			c0-1.625,1.625-4.063,3.251-4.063h16.254C298.755,180.299,299.568,182.737,299.568,184.363L299.568,184.363z"/>
		<path fill="#F5CB21" d="M299.568,200.617c0,1.625-1.625,4.063-3.251,4.063h-16.254c-1.625,0-3.251-2.438-3.251-4.063l0,0
			c0-1.625,1.625-4.063,3.251-4.063h16.254C298.755,196.553,299.568,198.991,299.568,200.617L299.568,200.617z"/>
		<path fill="#F5CB21" d="M299.568,216.87c0,1.625-1.625,4.063-3.251,4.063h-16.254c-1.625,0-3.251-2.438-3.251-4.063l0,0
			c0-1.625,1.625-4.063,3.251-4.063h16.254C298.755,212.807,299.568,215.245,299.568,216.87L299.568,216.87z"/>
		<path fill="#F5CB21" d="M374.336,184.363c0,1.625-1.625,4.063-3.251,4.063h-16.254c-1.625,0-3.251-2.438-3.251-4.063l0,0
			c0-1.625,1.625-4.063,3.251-4.063h16.254C373.524,180.299,374.336,182.737,374.336,184.363L374.336,184.363z"/>
		<path fill="#F5CB21" d="M374.336,200.617c0,1.625-1.625,4.063-3.251,4.063h-16.254c-1.625,0-3.251-2.438-3.251-4.063l0,0
			c0-1.625,1.625-4.063,3.251-4.063h16.254C373.524,196.553,374.336,198.991,374.336,200.617L374.336,200.617z"/>
		<path fill="#F5CB21" d="M374.336,216.87c0,1.625-1.625,4.063-3.251,4.063h-16.254c-1.625,0-3.251-2.438-3.251-4.063l0,0
			c0-1.625,1.625-4.063,3.251-4.063h16.254C373.524,212.807,374.336,215.245,374.336,216.87L374.336,216.87z"/>
	</g>
	<path fill="#61255E" d="M160.597,26.699c8.127,2.438,14.629,8.94,15.441,16.254c0,0.813,0.813,1.625,1.625,1.625
		c0.813,0.813,1.625,0,2.438,0c4.063-6.502,13.003-8.94,21.13-6.502c10.565,2.438,17.067,12.19,14.629,21.943
		c-0.813,3.251-2.438,6.502-5.689,8.94l0,0l0,0l-47.137,32.508l-24.381-52.013l0,0l0,0c-1.625-3.251-1.625-6.502-0.813-10.565
		C139.467,29.137,150.032,23.448,160.597,26.699z"/>
	<path fill="#61255E" d="M177.663,44.578c0.813,0.813,1.625,0,2.438,0c4.063-6.502,13.003-8.94,21.13-6.502
		c10.565,2.438,17.067,12.19,14.629,21.943c-0.813,3.251-2.438,6.502-5.689,8.94l0,0l0,0l-47.136,32.508"/>
	<path fill="#61255E" d="M93.143,86.839c4.063-1.625,8.94,0,11.378,2.438h0.813c0.813,0,0.813,0,0.813-0.813
		c0-4.063,3.251-8.127,7.314-9.752c5.689-1.625,11.378,0.813,13.003,5.689c0.813,1.625,0.813,3.251,0,5.689l0,0l0,0l-11.378,28.444
		l-26.006-15.441l0,0l0,0c-1.625-0.813-2.438-2.438-3.251-4.063C84.203,94.966,87.454,89.277,93.143,86.839z"/>
	<path fill="#61255E" d="M106.146,90.09C106.146,90.09,106.959,90.09,106.146,90.09c0.813-4.876,4.063-8.94,8.127-9.752
		c5.689-1.625,11.378,0.813,13.003,5.689c0.813,1.625,0.813,3.251,0,5.689l0,0l0,0l-11.378,28.444"/>
	<path fill="#61255E" d="M141.092,116.909c2.438,0,4.876,0.813,6.502,3.251c0,0,0,0,0.813,0h0.813
		c0.813-2.438,2.438-4.063,5.689-4.063c3.251,0,5.689,1.625,6.502,4.876c0,0.813-0.813,2.438-0.813,3.251l0,0l0,0l-9.752,14.629
		l-13.816-12.19l0,0l0,0c-2.438-1.625-2.438-2.438-2.438-4.063C133.778,120.159,137.841,116.909,141.092,116.909z"/>
	<path fill="#61255E" d="M147.594,120.159C148.406,120.159,148.406,120.159,147.594,120.159c0.813-2.438,3.251-4.063,6.502-4.876
		c3.251,0,5.689,1.625,6.502,4.876c0,0.813,0,2.438-0.813,3.251l0,0l0,0l-9.752,14.629"/>
	<path fill="#61255E" d="M134.59,151.855c1.625,1.625,2.438,4.876,1.625,6.502v0.813h0.813c2.438-0.813,4.876-0.813,6.502,1.625
		c2.438,2.438,3.251,5.689,0.813,8.127c-0.813,0.813-1.625,2.438-2.438,2.438l0,0l0,0l-17.879,2.438l0.813-18.692l0,0l0,0
		c0-0.813,0.813-2.438,1.625-3.251C128.089,149.417,131.34,149.417,134.59,151.855z"/>
	<path fill="#61255E" d="M136.216,159.169L136.216,159.169c2.438-0.813,5.689,0,7.314,1.625c2.438,2.438,3.251,6.502,1.625,8.94
		c-0.813,0.813-2.438,1.625-3.251,1.625l0,0l0,0l-17.879,2.438"/>
	<path fill="#61255E" d="M549.067,273.759c0,2.438-1.625,4.876-4.064,4.876l0,0c-2.438,0-4.063-2.438-4.063-4.876v-28.444
		c0-2.438,1.625-4.876,4.063-4.876l0,0c2.438,0,4.064,2.438,4.064,4.876V273.759z"/>
	<g>
		<path fill="#F3FAFE" d="M264.622,241.251c0,2.438-1.625,4.063-4.064,4.063h-13.816c-2.438,0-4.063-1.625-4.063-4.063l0,0
			c0-2.438,1.625-4.063,4.063-4.063h13.816C262.997,237.188,264.622,238.813,264.622,241.251L264.622,241.251z"/>
		<path fill="#F3FAFE" d="M354.019,241.251c0,2.438-1.625,4.063-4.063,4.063h-17.067c-2.438,0-4.064-1.625-4.064-4.063v-0.813
			c0-2.438,1.625-4.063,4.064-4.063h17.067C352.394,237.188,354.019,238.813,354.019,241.251L354.019,241.251z"/>
		<path fill="#F3FAFE" d="M432.038,241.251c0,2.438-1.625,4.063-4.063,4.063h-13.816c-2.438,0-4.064-1.625-4.064-4.063l0,0
			c0-2.438,1.625-4.063,4.064-4.063h13.816C430.413,237.188,432.038,238.813,432.038,241.251L432.038,241.251z"/>
	</g>
	<g>
		<polygon fill="#D65584" points="204.482,129.912 195.543,125.848 189.041,142.102 205.295,148.604 208.546,138.851 		"/>
		
			<rect x="183.546" y="132.413" transform="matrix(0.3618 -0.9322 0.9322 0.3618 -8.8161 269.0133)" fill="#D65584" width="17.065" height="17.065"/>
		<polygon fill="#D65584" points="178.476,133.163 175.225,142.915 179.289,151.855 189.041,155.918 194.73,139.664 		"/>
	</g>
	<path fill="#61255E" d="M202.857,133.163l-5.689-2.438l-2.438,5.689l-5.689-2.438l-2.438,5.689l-5.689-2.438l-2.438,5.689
		l-3.251-0.813l4.063,8.94c3.251,8.127,12.19,11.378,20.317,8.127l0.813-0.813c8.127-3.251,11.378-12.19,8.127-20.317l-4.063-8.94
		L202.857,133.163z"/>
	<g>
		
			<rect x="194.758" y="132.475" transform="matrix(-0.3606 0.9327 -0.9327 -0.3606 392.626 -2.5751)" fill="#F4AFC7" width="4.876" height="1.625"/>
		
			<rect x="186.994" y="136.043" transform="matrix(-0.3636 0.9315 -0.9315 -0.3636 385.8014 10.1543)" fill="#F4AFC7" width="4.876" height="1.625"/>
		<polygon fill="#F4AFC7" points="205.295,132.35 205.295,131.537 204.482,129.099 203.67,131.537 		"/>
		<path fill="#F4AFC7" d="M180.914,150.229l-3.251-7.314l-2.438-0.813l4.063,8.94c3.251,8.127,12.19,11.378,20.317,8.127
			l0.813-0.813c0,0,0,0,0.813,0C193.105,161.607,184.165,158.356,180.914,150.229z"/>
		
			<rect x="178.524" y="139.315" transform="matrix(-0.3636 0.9315 -0.9315 -0.3636 377.2994 22.5062)" fill="#F4AFC7" width="4.876" height="1.625"/>
	</g>
	<g>
		<path fill="#FFFEF6" d="M210.171,161.607c0,4.063-3.251,8.127-8.127,8.127l0,0c-4.063,0-8.127-3.251-8.127-8.127l0,0
			c0-4.063,3.251-8.127,8.127-8.127l0,0C206.921,153.48,210.171,157.544,210.171,161.607L210.171,161.607z"/>
		<path fill="#FFFEF6" d="M210.171,155.918c0,0,117.841-20.317,78.832-38.197s-7.314-35.759,96.711-60.952
			c73.956-17.879,111.34-42.26,123.53-59.327c0,0-8.94,30.883-17.879,36.571c0,0,24.381-0.813,26.819-2.438
			c2.438-1.625-3.251,1.625-3.251,1.625s-46.324,26.006-137.346,44.698s-95.086,26.006-68.267,37.384
			c26.006,12.19,14.629,28.444-41.448,35.759C211.797,158.356,210.171,155.918,210.171,155.918z"/>
	</g>
	<polygon fill="#09496C" points="181.727,221.747 197.981,180.299 239.429,180.299 	"/>
	<path fill="#61255E" d="M301.194,155.105c0,0,51.2,1.625,34.946-18.692c-16.254-19.505,20.317-60.14,55.263-21.943
		s76.394,39.822,87.771,6.502c0,0,0,19.505-7.314,30.07l22.756,0.813c0,0-52.013,27.632-82.895,8.127
		c-30.883-20.317-58.514-58.514-69.079-39.822c-10.565,18.692,12.19,23.568,0,31.695
		C331.263,158.356,301.194,155.105,301.194,155.105z"/>
	<g>
		<path fill="#FFFEF6" d="M266.248,73.836c0,2.438-2.438,4.876-4.876,4.876l0,0c-2.438,0-4.876-2.438-4.876-4.876l0,0
			c0-2.438,2.438-4.876,4.876-4.876l0,0C263.809,68.959,266.248,71.397,266.248,73.836L266.248,73.836z"/>
		<path fill="#FFFEF6" d="M288.19,70.585c0,1.625-1.625,3.251-2.438,3.251l0,0c-1.625,0-2.438-1.625-2.438-3.251l0,0
			c0-1.625,1.625-2.438,2.438-2.438l0,0C286.565,67.334,288.19,68.959,288.19,70.585L288.19,70.585z"/>
		<path fill="#FFFEF6" d="M262.997,91.715c0,1.625-0.813,2.438-2.438,2.438l0,0c-1.625,0-2.438-0.813-2.438-2.438l0,0
			c0-1.625,0.813-2.438,2.438-2.438l0,0C262.184,89.277,262.997,90.09,262.997,91.715L262.997,91.715z"/>
		<path fill="#FFFEF6" d="M241.867,107.156c0,4.876-4.063,8.94-8.94,8.94l0,0c-4.876,0-8.94-4.063-8.94-8.94l0,0
			c0-4.876,4.063-8.94,8.94-8.94l0,0C237.803,98.217,241.867,102.28,241.867,107.156L241.867,107.156z"/>
		<path fill="#FFFEF6" d="M261.371,126.661c0,1.625-1.625,3.251-3.251,3.251l0,0c-1.625,0-3.251-1.625-3.251-3.251l0,0
			c0-1.625,1.625-3.251,3.251-3.251l0,0C259.746,123.41,261.371,125.036,261.371,126.661L261.371,126.661z"/>
	</g>
	<g>
		<path fill="#61255E" d="M428.787,99.842c0,5.689-4.876,10.565-10.565,10.565l0,0c-5.689,0-10.565-4.876-10.565-10.565l0,0
			c0-5.689,4.876-10.565,10.565-10.565l0,0C423.911,90.09,428.787,94.153,428.787,99.842L428.787,99.842z"/>
		<circle fill="#61255E" cx="363.771" cy="135.601" r="2.438"/>
		<circle fill="#61255E" cx="379.213" cy="147.791" r="3.251"/>
		<circle fill="#61255E" cx="384.902" cy="89.277" r="1.625"/>
		<circle fill="#61255E" cx="441.79" cy="129.099" r="5.689"/>
	</g>
</g>
<g>
	<g>
		<path fill="#61255E" d="M353.026,381.989v104.382v3.688h-60.242h-24.746h-61.285v-3.688v-52.758l42.584-51.615h18.701V486.38
			h24.746V381.989H353.026z M213.247,418.528l-39.148,47.163l-26.293-21.868l36.134-43.52c-5.487,1.367-12.486,1.637-19.907,0.405
			c-16.021-2.609-27.985-10.965-26.734-18.692c0.225-1.34,0.81-2.546,1.709-3.643c4.408-5.289,16.318-7.772,29.595-5.622
			c4.462,0.729,8.555,1.943,12.198,3.436c-2.132-3.292-4.066-7.124-5.622-11.361c-4.561-12.674-4.318-24.827,0.081-30.134
			c0.918-1.097,1.997-1.898,3.265-2.348c7.358-2.663,17.793,7.556,23.316,22.821c2.546,7.079,3.598,13.979,3.265,19.628
			l36.134-43.52l26.311,21.841l-38.482,46.335l-26.608-22.066l-15.814,19.061L213.247,418.528z M182.761,362.082
			c1.268,3.472,2.879,6.747,4.813,9.724l4.965,7.682l3.346,0.405c1.385-2.213,2.492-10.588-1.619-21.976
			c-4.264-11.766-10.633-17.253-12.953-17.865C179.748,342.328,178.651,350.703,182.761,362.082z M187.187,390.219l-1.07-3.175
			l-8.348-3.4c-3.337-1.358-6.845-2.357-10.453-2.932c-11.937-1.961-19.979,0.684-21.94,2.627c1.034,2.177,7.61,7.412,19.961,9.436
			C177.112,394.69,185.091,392.162,187.187,390.219z M318.996,358.637c1.106-1.547,3.013-2.357,4.678-2.357
			c0.171,0,0.333,0.009,0.495,0.018c1.943,0.216,3.274,0.855,4.129,1.988c0.846,1.106,1.115,2.618,0.801,4.498
			c-0.747,4.561-9.139,11.928-9.508,12.225c-0.153,0.135-0.351,0.198-0.558,0.198c-0.207,0-0.405-0.063-0.558-0.189
			c-0.369-0.306-8.833-7.664-9.589-12.234c-0.297-1.88-0.027-3.391,0.819-4.498c0.855-1.133,2.213-1.781,4.156-1.988
			c0.144-0.009,0.315-0.018,0.477-0.018C316.001,356.28,317.881,357.09,318.996,358.637z M323.215,357.926
			c4.354,0.657,4.696,5.559,4.696,5.559C328.468,357.171,323.215,357.926,323.215,357.926z M277.833,362.424
			c0.747-0.98,1.97-1.547,3.661-1.727c0.135,0,0.27-0.018,0.423-0.018c1.484,0,3.157,0.702,4.138,2.06
			c0.963-1.358,2.654-2.06,4.138-2.06c0.135,0,0.279,0.018,0.414,0.018c1.718,0.18,2.914,0.747,3.67,1.727s0.98,2.33,0.72,3.994
			c-0.666,4.039-8.096,10.543-8.402,10.803c-0.171,0.126-0.333,0.18-0.531,0.18c-0.18,0-0.36-0.045-0.504-0.162
			c-0.306-0.279-7.808-6.783-8.465-10.821C276.826,364.754,277.069,363.404,277.833,362.424z M289.779,362.127
			c3.868,0.585,4.147,4.938,4.147,4.938C294.421,361.434,289.779,362.127,289.779,362.127z M286.784,326.307
			c-0.522-3.121-0.063-5.667,1.34-7.511c1.421-1.862,3.706-2.95,6.926-3.283c0.261-0.036,0.549-0.045,0.828-0.045
			c2.78,0,5.937,1.358,7.79,3.904c1.835-2.546,5.019-3.904,7.808-3.904c0.261,0,0.549,0.009,0.81,0.045
			c3.211,0.333,5.487,1.421,6.908,3.283c1.421,1.844,1.88,4.39,1.358,7.511c-1.259,7.664-15.274,19.907-15.877,20.428
			c-0.27,0.234-0.621,0.36-0.962,0.36c-0.333,0-0.666-0.126-0.945-0.36C302.166,346.214,288.043,333.972,286.784,326.307z
			 M310.693,318.23c7.286,1.088,7.808,9.274,7.808,9.274C319.437,316.952,310.702,318.23,310.693,318.23z M265.816,315.018
			c0-0.333-0.261-0.603-0.594-0.603s-0.603,0.27-0.603,0.603s0.27,0.594,0.603,0.594
			C265.555,315.612,265.816,315.351,265.816,315.018z M278.742,314.802H266.76v0.414h11.982V314.802z M265.015,328.152h0.405V316.17
			h-0.405V328.152z M265.42,301.327h-0.405v11.955h0.405V301.327z M263.927,316.026l-8.474,8.447l0.297,0.306l8.483-8.447
			L263.927,316.026z M274.982,324.481l-8.447-8.456l-0.297,0.297l8.447,8.447L274.982,324.481z M263.738,315.027h-11.964v0.414
			h11.964V315.027z M274.802,305.996l-0.306-0.288l-8.276,8.654l0.306,0.288L274.802,305.996z M272.688,300.806l-0.36-0.198
			l-5.811,10.489l0.351,0.198L272.688,300.806z M264.25,311.348l-5.658-10.552l-0.369,0.189l5.667,10.543L264.25,311.348z
			 M261.399,313.453l-11.46-3.472l-0.117,0.396l11.46,3.472L261.399,313.453z M280.091,319.75l-11.46-3.454l-0.126,0.396
			l11.469,3.454L280.091,319.75z M269.558,313.705l10.561-5.667l-0.189-0.351l-10.561,5.667L269.558,313.705z M250.856,322.368
			l10.561-5.667l-0.198-0.369l-10.552,5.667L250.856,322.368z M260.032,330.373l3.805-11.343l-0.396-0.135l-3.814,11.343
			L260.032,330.373z M270.133,330.418l0.405-0.126l-3.562-11.433l-0.396,0.126L270.133,330.418z M264.196,314.281l-8.456-8.465
			l-0.288,0.288l8.456,8.465L264.196,314.281z M334.045,335.744c0-0.171-0.135-0.297-0.288-0.297c-0.18,0-0.297,0.135-0.297,0.297
			c0,0.162,0.126,0.297,0.297,0.297C333.91,336.04,334.045,335.906,334.045,335.744z M340.45,335.636h-5.919v0.198h5.919
			C340.45,335.834,340.45,335.636,340.45,335.636z M333.659,342.247h0.189v-5.919h-0.189V342.247z M333.838,328.961h-0.189v5.928
			h0.189V328.961z M333.083,336.247l-4.183,4.174l0.144,0.144l4.192-4.183L333.083,336.247z M338.588,340.421l-4.183-4.192
			l-0.144,0.144l4.183,4.192L338.588,340.421z M333.02,335.753h-5.937v0.189h5.937V335.753z M338.534,331.318l-0.144-0.135
			l-4.201,4.192l0.144,0.144L338.534,331.318z M337.599,328.799l-0.189-0.117l-3.184,5.019l0.189,0.117L337.599,328.799z
			 M333.263,333.927l-2.798-5.226l-0.189,0.099l2.807,5.226L333.263,333.927z M331.841,334.961l-5.667-1.718l-0.063,0.198
			l5.658,1.718L331.841,334.961z M341.134,338.1l-5.694-1.727l-0.072,0.198l5.694,1.727L341.134,338.1z M335.898,335.087
			l5.235-2.798l-0.108-0.198l-5.235,2.798L335.898,335.087z M326.633,339.378l5.235-2.807l-0.099-0.189l-5.235,2.807
			L326.633,339.378z M331.167,343.345l1.898-5.613l-0.189-0.072l-1.889,5.622L331.167,343.345z M336.168,343.381l0.198-0.063
			l-1.727-5.676l-0.198,0.063L336.168,343.381z M333.245,335.375l-4.201-4.192l-0.144,0.144l4.201,4.192L333.245,335.375z"/>
	</g>
</g>
<g>
	<g>
		<g>
			<polygon fill="#3FC0BF" points="509.224,229.957 495.425,238.895 494.166,246.029 507.968,237.091 			"/>
			<polygon fill="#3FC0BF" points="506.643,244.581 492.849,253.516 491.397,261.723 505.197,252.785 			"/>
			<polygon fill="#3FC0BF" points="511.679,216.045 499.826,213.956 496.748,231.404 510.543,222.468 			"/>
			<path fill="#3FC0BF" d="M472.385,290.511c-4.113,0-7.45,3.334-7.45,7.449c0,4.119,3.337,7.453,7.45,7.453
				c0.191,0,0.374-0.044,0.557-0.055c1.797,13.24-12.094,25.345-25.252,26.058c-14.819,0.8-20.964-13.552-22.192-26.215
				c3.294-0.769,5.75-3.712,5.75-7.237c0-4.113-3.335-7.45-7.45-7.45c-4.113,0-7.449,3.334-7.449,7.45
				c0,2.281,1.045,4.294,2.659,5.662c1.09,17.421,11.018,36.705,31.446,33.938c17.1-2.316,32.385-18.796,28.24-35.673
				c0.715-1.145,1.141-2.481,1.141-3.928C479.835,293.848,476.498,290.511,472.385,290.511z"/>
			<path fill="#3FC0BF" d="M528.919,423.476c-5.478-21.564-21.689-95.583-0.289-142.666c0.023-0.046,0.026-0.095,0.046-0.142
				c0.115-0.276,0.2-0.553,0.262-0.842c0.016-0.071,0.039-0.14,0.053-0.209c0.059-0.357,0.078-0.721,0.059-1.083
				c-0.002-0.066-0.025-0.133-0.029-0.196c-0.032-0.291-0.085-0.58-0.174-0.867c-0.03-0.102-0.067-0.2-0.105-0.299
				c-0.094-0.25-0.212-0.493-0.349-0.729c-0.031-0.058-0.048-0.126-0.089-0.19c-0.02-0.036-0.055-0.058-0.075-0.094
				c-0.039-0.055-0.062-0.115-0.101-0.17l-15.391-20.692c-0.545-0.737-1.3-1.26-2.134-1.578c1.774,4.3,1.476,9.526-0.896,13.51
				l5.084,6.838h-21.466l9.169-5.94l1.387-7.848l-13.797,8.938l-0.86,4.851h-14.459l7.066-11.142l1.609-2.612l-10.898-6.938
				l-26.229-16.632l-7.897,12.453l7.663,24.874h-3.963l-16.054-52.117l-42.065,12.959l5.683,18.454h-4.409
				c-1.791,0-3.434,1.001-4.25,2.597l-10.611,20.692c-0.047,0.092-0.066,0.187-0.11,0.281c-0.055,0.121-0.102,0.242-0.144,0.371
				c-0.078,0.229-0.136,0.46-0.175,0.695c-0.021,0.109-0.046,0.216-0.058,0.329c-0.029,0.312-0.035,0.62-0.005,0.927
				c0.003,0.041-0.002,0.081,0,0.122c0.042,0.347,0.128,0.69,0.243,1.022c0.011,0.028,0.011,0.055,0.019,0.083
				c22.606,61.51,6.694,125.402,1.276,143.519c-0.31,1.042-0.887,2.987,0.572,4.921c0.9,1.195,2.317,1.897,3.811,1.897h0.063
				c1.295-0.016,2.242-0.461,2.946-1.085h142.994c0.68,0.501,1.567,0.85,2.732,0.85c1.476,0,2.868-0.681,3.773-1.845
				C529.783,426.888,529.344,425.153,528.919,423.476z M388.188,262.918h4.432l3.432,11.142h-13.583L388.188,262.918z
				 M382.441,420.185c6.308-23.875,17.251-80.414-1.079-136.571h135.8c-17.069,46.068-5.072,110.284,1.118,136.571H382.441z"/>
		</g>
	</g>
</g>
<path fill="#3FC0BF" d="M390.709,331.474c0.17,1.976,0.178,4.965-0.071,9.776c-1.125,21.75,0.316,21.702-0.842,39.226"/>
<path fill="#3FC0BF" d="M381.781,284.915c0.879,3.24,1.591,5.412,2.173,6.994"/>
<rect id="_x3C_Slice_x3E_" x="382.514" y="287" fill="#3DBFBF" width="77" height="51"/>
<rect id="_x3C_Slice_x3E__1_" x="382.514" y="282" fill="#3DBFBF" width="95" height="12"/>
<rect id="_x3C_Slice_x3E__2_" x="376.514" y="282" fill="#3DBFBF" width="22" height="12"/>
<rect id="_x3C_Slice_x3E__3_" x="446.514" y="282" fill="#3DBFBF" width="70" height="140"/>
<rect id="_x3C_Slice_x3E__4_" x="505.514" y="399" fill="#3DBFBF" width="11" height="23"/>
<rect id="_x3C_Slice_x3E__5_" x="382.514" y="334" fill="#3DBFBF" width="78" height="88"/>
<rect id="_x3C_Slice_x3E__6_" x="499.514" y="399" fill="#3DBFBF" width="17" height="24"/>
<rect id="_x3C_Slice_x3E__7_" x="505.514" y="405" fill="#3DBFBF" width="16" height="17"/>
</svg>
